<svg width="60" height="60" viewBox="0 0 60 60" fill="none" xmlns="http://www.w3.org/2000/svg">
<path d="M59.1472 19.744L31.1688 0.362964C30.8266 0.1266 30.4206 0 30.0047 0C29.5889 0 29.1829 0.1266 28.8407 0.362964L20.0022 6.48328V5.99725C20.0022 5.20156 19.6861 4.43846 19.1235 3.87582C18.5609 3.31318 17.7978 2.9971 17.0021 2.9971H14.0019C13.2062 2.9971 12.4431 3.31318 11.8805 3.87582C11.3179 4.43846 11.0018 5.20156 11.0018 5.99725V12.7186L0.858258 19.745C0.642699 19.8939 0.458695 20.084 0.316818 20.3043C0.174941 20.5246 0.0779859 20.7707 0.0315225 21.0286C-0.0149409 21.2865 -0.00999703 21.551 0.0460702 21.8069C0.102137 22.0629 0.208223 22.3053 0.358233 22.5201L1.6333 24.3492C1.94671 24.7969 2.42445 25.1025 2.96232 25.1994C3.50019 25.2963 4.05454 25.1765 4.50444 24.8662L5.00447 24.5232V54.9997C5.00606 56.3254 5.53338 57.5963 6.47076 58.5337C7.40815 59.4711 8.67906 59.9984 10.0047 60H50.0038C51.3294 59.9984 52.6003 59.4711 53.5377 58.5337C54.4751 57.5963 55.0024 56.3254 55.004 54.9997V24.5232L55.504 24.8662C55.9539 25.1767 56.5083 25.2967 57.0462 25.1998C57.5842 25.1029 58.0619 24.7971 58.3752 24.3492L59.6512 22.5191C59.801 22.3042 59.9069 22.0618 59.9628 21.8059C60.0187 21.55 60.0236 21.2856 59.9771 21.0278C59.9307 20.77 59.8338 20.5239 59.6921 20.3036C59.5504 20.0833 59.3666 19.8931 59.1512 19.744H59.1472ZM13.0019 5.99725C13.0019 5.73202 13.1072 5.47765 13.2948 5.29011C13.4823 5.10256 13.7367 4.9972 14.0019 4.9972H17.0021C17.2673 4.9972 17.5217 5.10256 17.7092 5.29011C17.8968 5.47765 18.0021 5.73202 18.0021 5.99725V7.86935L13.0019 11.3325V5.99725ZM53.0039 54.9997C53.0039 55.7954 52.6878 56.5585 52.1252 57.1212C51.5625 57.6838 50.7994 57.9999 50.0038 57.9999H10.0017C9.20603 57.9999 8.44293 57.6838 7.8803 57.1212C7.31766 56.5585 7.00157 55.7954 7.00157 54.9997V23.1411L30.0267 7.23131L53.0039 23.1381V54.9997ZM56.6391 23.2221L31.1688 5.58823C30.8267 5.3516 30.4207 5.22483 30.0047 5.22483C29.5888 5.22483 29.1827 5.3516 28.8407 5.58823L3.36639 23.2221C3.35198 23.232 3.33432 23.2358 3.31714 23.2328C3.29996 23.2298 3.28462 23.2202 3.27438 23.2061L2.00132 21.389L30.0267 2.00605L58.0042 21.376L56.6391 23.2221Z" fill="#FF4136"/>
<path d="M30.0028 42.9991C29.2116 42.9991 28.4382 43.2338 27.7804 43.6733C27.1225 44.1128 26.6098 44.7376 26.3071 45.4685C26.0043 46.1995 25.9251 47.0038 26.0794 47.7797C26.2338 48.5557 26.6148 49.2685 27.1742 49.8279C27.7336 50.3874 28.4464 50.7683 29.2224 50.9227C29.9983 51.077 30.8026 50.9978 31.5336 50.6951C32.2645 50.3923 32.8893 49.8796 33.3288 49.2217C33.7684 48.5639 34.003 47.7905 34.003 46.9993C34.003 45.9384 33.5815 44.921 32.8313 44.1708C32.0812 43.4206 31.0637 42.9991 30.0028 42.9991ZM30.0028 48.9995C29.6072 48.9995 29.2205 48.8821 28.8916 48.6624C28.5627 48.4426 28.3063 48.1302 28.1549 47.7648C28.0035 47.3993 27.9639 46.9971 28.0411 46.6091C28.1183 46.2212 28.3088 45.8648 28.5885 45.5851C28.8682 45.3053 29.2246 45.1149 29.6126 45.0377C30.0006 44.9605 30.4027 45.0001 30.7682 45.1515C31.1336 45.3029 31.446 45.5592 31.6658 45.8882C31.8856 46.2171 32.0029 46.6038 32.0029 46.9993C32.0029 47.5298 31.7921 48.0385 31.4171 48.4136C31.042 48.7887 30.5332 48.9995 30.0028 48.9995Z" fill="#FF4136"/>
<path d="M30.0028 36.9988C27.8987 37.002 25.8604 37.7318 24.2325 39.0649C24.0273 39.2333 23.8975 39.4763 23.8715 39.7405C23.8455 40.0046 23.9256 40.2683 24.094 40.4735C24.2624 40.6786 24.5054 40.8085 24.7696 40.8344C25.0337 40.8604 25.2974 40.7804 25.5025 40.612C26.7708 39.57 28.3614 39.0005 30.0028 39.0005C31.6442 39.0005 33.2347 39.57 34.503 40.612C34.7082 40.7801 34.9717 40.8599 35.2357 40.8337C35.4997 40.8076 35.7424 40.6776 35.9106 40.4725C36.0787 40.2673 36.1585 40.0038 36.1323 39.7398C36.1062 39.4758 35.9762 39.233 35.7711 39.0649C34.1438 37.7321 32.1062 37.0023 30.0028 36.9988Z" fill="#FF4136"/>
<path d="M30.0027 30.9985C26.6519 30.9979 23.4042 32.1573 20.8112 34.2797C20.707 34.3614 20.62 34.4631 20.5554 34.5787C20.4907 34.6943 20.4497 34.8216 20.4347 34.9532C20.4197 35.0848 20.4309 35.2181 20.4678 35.3453C20.5047 35.4725 20.5665 35.5912 20.6497 35.6943C20.7328 35.7974 20.8356 35.883 20.9521 35.9461C21.0685 36.0092 21.1964 36.0485 21.3282 36.0617C21.46 36.075 21.5931 36.0619 21.7198 36.0233C21.8465 35.9847 21.9643 35.9213 22.0663 35.8368C24.3041 34.0016 27.1087 32.9987 30.0027 32.9987C32.8967 32.9987 35.7013 34.0016 37.9391 35.8368C38.0411 35.9213 38.1589 35.9847 38.2856 36.0233C38.4123 36.0619 38.5454 36.075 38.6772 36.0617C38.809 36.0485 38.9369 36.0092 39.0533 35.9461C39.1698 35.883 39.2726 35.7974 39.3557 35.6943C39.4389 35.5912 39.5007 35.4725 39.5376 35.3453C39.5745 35.2181 39.5857 35.0848 39.5707 34.9532C39.5557 34.8216 39.5147 34.6943 39.45 34.5787C39.3854 34.4631 39.2984 34.3614 39.1942 34.2797C36.6015 32.1568 33.3536 30.9974 30.0027 30.9985Z" fill="#FF4136"/>
<path d="M17.3741 29.4984C17.1676 29.665 17.0357 29.9068 17.0075 30.1706C16.9793 30.4343 17.057 30.6985 17.2236 30.905C17.3901 31.1115 17.6319 31.2433 17.8957 31.2716C18.1595 31.2998 18.4237 31.2221 18.6301 31.0555C21.8392 28.431 25.8572 26.9972 30.0027 26.9972C34.1483 26.9972 38.1663 28.431 41.3753 31.0555C41.5818 31.2221 41.846 31.2998 42.1098 31.2716C42.3735 31.2433 42.6153 31.1115 42.7819 30.905C42.9484 30.6985 43.0261 30.4343 42.9979 30.1706C42.9697 29.9068 42.8378 29.665 42.6314 29.4984C39.0664 26.5873 34.6053 24.9972 30.0027 24.9972C25.4002 24.9972 20.939 26.5873 17.3741 29.4984Z" fill="#FF4136"/>
</svg>
