<svg width="60" height="61" viewBox="0 0 60 61" fill="none" xmlns="http://www.w3.org/2000/svg">
<path d="M15.4534 10.9083C14.248 10.9083 13.0919 11.3871 12.2395 12.2395C11.3872 13.0919 10.9083 14.248 10.9083 15.4534C10.9083 16.6588 11.3872 17.8149 12.2395 18.6673C13.0919 19.5197 14.248 19.9985 15.4534 19.9985C16.6589 19.9985 17.8149 19.5197 18.6673 18.6673C19.5197 17.8149 19.9985 16.6588 19.9985 15.4534C19.9985 14.248 19.5197 13.0919 18.6673 12.2395C17.8149 11.3871 16.6589 10.9083 15.4534 10.9083ZM15.4534 18.1805C13.9445 18.1805 12.7264 16.9624 12.7264 15.4534C12.7264 13.9444 13.9445 12.7263 15.4534 12.7263C16.9624 12.7263 18.1805 13.9444 18.1805 15.4534C18.1805 16.9624 16.9624 18.1805 15.4534 18.1805ZM59.6865 43.8513L45.4512 31.3977V22.7256C45.4512 18.2168 41.7788 14.5444 37.27 14.5444H30.8523C30.3796 6.45407 23.6528 0 15.4534 0C7.25404 0 3.07974e-05 6.92676 3.07974e-05 15.4534C-0.00591497 18.4287 0.849179 21.3421 2.46215 23.8422C4.07513 26.3423 6.37707 28.3223 9.09027 29.5433V53.6324C9.09027 53.8687 9.18117 54.1051 9.36297 54.2687L14.8171 59.7228C14.8994 59.8086 14.9982 59.8769 15.1076 59.9235C15.2169 59.9702 15.3346 59.9942 15.4534 59.9942C15.5723 59.9942 15.69 59.9702 15.7993 59.9235C15.9087 59.8769 16.0075 59.8086 16.0897 59.7228L21.5439 54.2687C21.7135 54.0998 21.8113 53.8717 21.8166 53.6324V29.5433C27.0889 27.1616 30.5069 22.1075 30.8341 16.3624H37.27C40.7788 16.3624 43.6332 19.2168 43.6332 22.7256V31.3977L33.0339 40.6697L29.3979 43.8513C29.0161 44.1785 28.9797 44.7603 29.307 45.1421C29.4888 45.3421 29.7433 45.4512 29.9978 45.4512C30.216 45.4512 30.416 45.3785 30.5978 45.233L32.7249 43.3786V59.1047C32.7249 59.6138 33.1248 60.0137 33.6339 60.0137H55.4505C55.9595 60.0137 56.3595 59.6138 56.3595 59.1047V43.3786L58.4866 45.233C58.6502 45.3785 58.8684 45.4512 59.0866 45.4512C59.3411 45.4512 59.5956 45.3421 59.7774 45.1421C60.1047 44.7603 60.0683 44.1967 59.6865 43.8513ZM20.5621 28.107C20.2167 28.2525 19.9985 28.5797 19.9985 28.9433V53.2506L15.4534 57.7957L10.9083 53.2506V28.9433C10.9083 28.5797 10.6901 28.2343 10.3447 28.107C7.822 27.091 5.66147 25.3426 4.1417 23.0873C2.62193 20.8319 1.8126 18.173 1.81808 15.4534C1.81808 7.92669 7.92672 1.81805 15.4534 1.81805C22.9801 1.81805 29.0888 7.92669 29.0888 15.4534C29.0888 21.0348 25.7436 25.9981 20.5621 28.107ZM41.8151 58.1775V49.0873H47.2693V58.1775H41.8151ZM54.5414 58.1775H49.0873V48.1782C49.0873 47.6692 48.6873 47.2692 48.1783 47.2692H40.9061C40.397 47.2692 39.9971 47.6692 39.9971 48.1782V58.1775H34.5429V41.7787L44.5422 33.0339L54.5414 41.7787V58.1775Z" fill="black"/>
</svg>
