<svg width="60" height="61" viewBox="0 0 60 61" fill="none" xmlns="http://www.w3.org/2000/svg">
<path d="M59.3192 6.89558H53.5361C53.365 5.01299 52.4968 3.26222 51.1017 1.98657C49.7067 0.710925 47.8854 0.00242512 45.9951 0H7.5737C5.56582 0.00180221 3.64067 0.800135 2.22076 2.21979C0.800843 3.63945 0.00216325 5.56446 0 7.57234V12.2756C0 12.4562 0.0717315 12.6294 0.199414 12.757C0.327097 12.8847 0.500272 12.9564 0.680843 12.9564H8.48331V53.9705C8.48331 54.151 8.55504 54.3242 8.68272 54.4519C8.8104 54.5796 8.98358 54.6513 9.16415 54.6513H14.2868V60.29C14.2868 60.4706 14.3586 60.6438 14.4862 60.7715C14.6139 60.8992 14.7871 60.9709 14.9677 60.9709H59.3192C59.4997 60.9709 59.6729 60.8992 59.8006 60.7715C59.9283 60.6438 60 60.4706 60 60.29V7.57234C59.9989 7.39248 59.9267 7.22035 59.7991 7.09355C59.6716 6.96675 59.499 6.89558 59.3192 6.89558ZM1.35352 11.5988V7.57234C1.35532 5.9232 2.01124 4.34212 3.17736 3.176C4.34348 2.00987 5.92456 1.35396 7.5737 1.35215H41.6799C40.6748 2.0487 39.8536 2.9784 39.2863 4.06167C38.7191 5.14494 38.4227 6.34953 38.4227 7.57234V11.5988H1.35352ZM9.83546 12.951H39.0981C39.2787 12.951 39.4519 12.8793 39.5795 12.7516C39.7072 12.6239 39.7789 12.4507 39.7789 12.2702V7.57234C39.8031 5.9384 40.4692 4.37958 41.6332 3.23266C42.7972 2.08575 44.3657 1.44283 45.9998 1.44283C47.6339 1.44283 49.2024 2.08575 50.3665 3.23266C51.5305 4.37958 52.1965 5.9384 52.2207 7.57234V53.2937H9.83546V12.951ZM58.6424 59.6133H15.6349V54.6459H52.892C53.0726 54.6459 53.2457 54.5741 53.3734 54.4464C53.5011 54.3188 53.5728 54.1456 53.5728 53.965V8.2491H58.6465L58.6424 59.6133Z" fill="black"/>
<path d="M21.7978 35.284H39.9804C40.1609 35.284 40.3341 35.2122 40.4618 35.0846C40.5895 34.9569 40.6612 34.7837 40.6612 34.6031V22.1532C40.6608 22.0338 40.6291 21.9166 40.5691 21.8134C40.5091 21.7101 40.423 21.6245 40.3194 21.565L31.2288 16.3906C31.1268 16.3331 31.0116 16.3029 30.8945 16.3029C30.7774 16.3029 30.6623 16.3331 30.5602 16.3906L21.4682 21.565C21.3647 21.6245 21.2786 21.7101 21.2186 21.8134C21.1586 21.9166 21.1268 22.0338 21.1265 22.1532V34.6072C21.1275 34.7854 21.1984 34.9562 21.3239 35.0827C21.4494 35.2092 21.6196 35.2815 21.7978 35.284ZM28.3516 33.9305V28.6567C28.3518 28.3692 28.4086 28.0845 28.5188 27.819C28.629 27.5535 28.7905 27.3123 28.9939 27.1093C29.1974 26.9062 29.4389 26.7452 29.7046 26.6354C29.9703 26.5257 30.2551 26.4694 30.5425 26.4698H31.2438C31.8234 26.4705 32.3791 26.7012 32.7889 27.1112C33.1986 27.5212 33.4289 28.077 33.4293 28.6567V33.9305H28.3516ZM22.4732 22.5468L30.8884 17.7577L39.3036 22.5468V33.9305H34.7774V28.6567C34.7774 27.7177 34.4044 26.8172 33.7404 26.1532C33.0765 25.4893 32.176 25.1163 31.237 25.1163H30.5425C29.6036 25.1163 28.703 25.4893 28.0391 26.1532C27.3751 26.8172 27.0021 27.7177 27.0021 28.6567V33.9305H22.4732V22.5468Z" fill="black"/>
<path d="M16.7813 40.5891H44.9954C45.091 40.6005 45.1878 40.5915 45.2796 40.5627C45.3714 40.5339 45.456 40.486 45.528 40.4221C45.5999 40.3582 45.6575 40.2798 45.6969 40.1921C45.7363 40.1043 45.7567 40.0092 45.7567 39.913C45.7567 39.8168 45.7363 39.7217 45.6969 39.634C45.6575 39.5462 45.5999 39.4678 45.528 39.404C45.456 39.3401 45.3714 39.2922 45.2796 39.2634C45.1878 39.2346 45.091 39.2256 44.9954 39.2369H16.7813C16.6858 39.2256 16.5889 39.2346 16.4971 39.2634C16.4053 39.2922 16.3207 39.3401 16.2488 39.404C16.1768 39.4678 16.1193 39.5462 16.0798 39.634C16.0404 39.7217 16.02 39.8168 16.02 39.913C16.02 40.0092 16.0404 40.1043 16.0798 40.1921C16.1193 40.2798 16.1768 40.3582 16.2488 40.4221C16.3207 40.486 16.4053 40.5339 16.4971 40.5627C16.5889 40.5915 16.6858 40.6005 16.7813 40.5891Z" fill="black"/>
<path d="M44.9958 44.3175H29.8701C29.7746 44.3061 29.6778 44.3152 29.586 44.3439C29.4942 44.3727 29.4096 44.4206 29.3376 44.4845C29.2657 44.5484 29.2081 44.6268 29.1687 44.7145C29.1293 44.8023 29.1089 44.8974 29.1089 44.9936C29.1089 45.0898 29.1293 45.1849 29.1687 45.2726C29.2081 45.3604 29.2657 45.4388 29.3376 45.5027C29.4096 45.5665 29.4942 45.6144 29.586 45.6432C29.6778 45.672 29.7746 45.681 29.8701 45.6697H44.9958C45.0913 45.681 45.1881 45.672 45.2799 45.6432C45.3717 45.6144 45.4564 45.5665 45.5283 45.5027C45.6002 45.4388 45.6578 45.3604 45.6972 45.2726C45.7366 45.1849 45.757 45.0898 45.757 44.9936C45.757 44.8974 45.7366 44.8023 45.6972 44.7145C45.6578 44.6268 45.6002 44.5484 45.5283 44.4845C45.4564 44.4206 45.3717 44.3727 45.2799 44.3439C45.1881 44.3152 45.0913 44.3061 44.9958 44.3175Z" fill="black"/>
<path d="M16.7813 45.6697H23.3841C23.4796 45.681 23.5765 45.672 23.6683 45.6432C23.76 45.6144 23.8447 45.5665 23.9166 45.5027C23.9885 45.4388 24.0461 45.3604 24.0855 45.2726C24.125 45.1849 24.1454 45.0898 24.1454 44.9936C24.1454 44.8974 24.125 44.8023 24.0855 44.7145C24.0461 44.6268 23.9885 44.5484 23.9166 44.4845C23.8447 44.4206 23.76 44.3727 23.6683 44.3439C23.5765 44.3152 23.4796 44.3061 23.3841 44.3175H16.7813C16.6858 44.3061 16.5889 44.3152 16.4971 44.3439C16.4053 44.3727 16.3207 44.4206 16.2488 44.4845C16.1768 44.5484 16.1193 44.6268 16.0798 44.7145C16.0404 44.8023 16.02 44.8974 16.02 44.9936C16.02 45.0898 16.0404 45.1849 16.0798 45.2726C16.1193 45.3604 16.1768 45.4388 16.2488 45.5027C16.3207 45.5665 16.4053 45.6144 16.4971 45.6432C16.5889 45.672 16.6858 45.681 16.7813 45.6697Z" fill="black"/>
</svg>
