<svg width="56" height="60" viewBox="0 0 56 60" fill="none" xmlns="http://www.w3.org/2000/svg">
<path d="M41.9264 5.26191H24.9649V11.0885C24.9649 11.6058 24.5455 12.0253 24.0281 12.0253C23.5108 12.0253 23.0914 11.6059 23.0914 11.0885V4.32504C23.0914 3.8077 23.5108 3.38817 24.0281 3.38817H42.8632C43.3805 3.38817 43.7999 3.80759 43.7999 4.32504V24.4922C43.7999 25.0095 43.3805 25.429 42.8632 25.429H26.9714C26.4541 25.429 26.0347 25.0096 26.0347 24.4922C26.0347 23.9747 26.4541 23.5553 26.9714 23.5553H41.9264V5.26191ZM55.0345 41.3074C55.0345 43.1336 53.5503 44.6194 51.7259 44.6194H47.1882V50.7781C47.1882 52.7527 45.5818 54.3591 43.6072 54.3591H26.2704C25.7531 54.3591 25.3337 53.9397 25.3337 53.4222C25.3337 52.9048 25.7531 52.4853 26.2704 52.4853H43.6072C44.5488 52.4853 45.3147 51.7195 45.3147 50.778V44.6192H39.2621C38.0802 46.6915 35.8601 48.001 33.4457 48.001C29.7549 48.001 26.7521 44.9981 26.7521 41.3073C26.7521 37.6183 29.7548 34.617 33.4457 34.617C35.8615 34.617 38.0817 35.9263 39.2625 37.9986H45.3147V3.57768C45.3147 2.638 44.5488 1.87362 43.6072 1.87362H23.2808C22.3412 1.87362 21.5767 2.638 21.5767 3.57768V10.703C21.5767 11.2203 21.1573 11.6399 20.64 11.6399C20.1226 11.6399 19.7032 11.2204 19.7032 10.703V3.57768C19.7032 1.60497 21.3082 0 23.2808 0H43.6074C45.582 0 47.1883 1.60497 47.1883 3.57768V37.9988H51.726C53.5503 37.9988 55.0345 39.4831 55.0345 41.3074ZM36.9429 44.6194H33.2696C31.4435 44.6194 29.9577 43.1336 29.9577 41.3074C29.9577 39.4831 31.4435 37.9988 33.2696 37.9988H36.9438C36.0481 37.0553 34.7898 36.4908 33.4458 36.4908C30.788 36.4908 28.6258 38.6515 28.6258 41.3074C28.6258 43.9652 30.788 46.1275 33.4458 46.1275C34.7887 46.1275 36.0467 45.5632 36.9429 44.6194ZM53.161 41.3074C53.161 40.5161 52.5173 39.8724 51.7259 39.8724H33.2696C32.4765 39.8724 31.8313 40.5161 31.8313 41.3074C31.8313 42.1004 32.4766 42.7457 33.2696 42.7457H51.7259C52.5173 42.7457 53.161 42.1005 53.161 41.3074ZM39.3885 7.42437H27.4996C26.9822 7.42437 26.5628 7.84378 26.5628 8.36124C26.5628 8.87857 26.9822 9.2981 27.4996 9.2981H39.3886C39.9059 9.2981 40.3253 8.87869 40.3253 8.36124C40.3253 7.84378 39.9058 7.42437 39.3885 7.42437ZM27.9048 13.7028C28.643 13.7028 29.2436 13.1006 29.2436 12.3607C29.2436 11.6225 28.643 11.0219 27.9048 11.0219C27.1647 11.0219 26.5627 11.6225 26.5627 12.3607C26.5628 13.1006 27.1648 13.7028 27.9048 13.7028ZM31.5987 11.022C30.8587 11.022 30.2567 11.6226 30.2567 12.3608C30.2567 13.1008 30.8587 13.7029 31.5987 13.7029C32.3369 13.7029 32.9375 13.1008 32.9375 12.3608C32.9375 11.6226 32.3369 11.022 31.5987 11.022ZM35.2926 11.022C34.5527 11.022 33.9507 11.6226 33.9507 12.3608C33.9507 13.1008 34.5527 13.7029 35.2926 13.7029C36.0308 13.7029 36.6313 13.1008 36.6313 12.3608C36.6313 11.6226 36.0308 11.022 35.2926 11.022ZM38.9865 11.022C38.2465 11.022 37.6445 11.6226 37.6445 12.3608C37.6445 13.1008 38.2465 13.7029 38.9865 13.7029C39.7246 13.7029 40.3252 13.1008 40.3252 12.3608C40.3253 11.6226 39.7247 11.022 38.9865 11.022ZM27.9048 17.5461C28.643 17.5461 29.2436 16.9456 29.2436 16.2074C29.2436 15.4674 28.643 14.8653 27.9048 14.8653C27.1647 14.8653 26.5627 15.4674 26.5627 16.2074C26.5628 16.9456 27.1648 17.5461 27.9048 17.5461ZM31.5987 14.8654C30.8587 14.8654 30.2567 15.4675 30.2567 16.2075C30.2567 16.9456 30.8587 17.5463 31.5987 17.5463C32.3369 17.5463 32.9375 16.9457 32.9375 16.2075C32.9375 15.4674 32.3369 14.8654 31.5987 14.8654ZM35.2926 14.8654C34.5527 14.8654 33.9507 15.4675 33.9507 16.2075C33.9507 16.9456 34.5527 17.5463 35.2926 17.5463C36.0308 17.5463 36.6313 16.9457 36.6313 16.2075C36.6313 15.4674 36.0308 14.8654 35.2926 14.8654ZM38.9865 14.8654C38.2465 14.8654 37.6445 15.4675 37.6445 16.2075C37.6445 16.9456 38.2465 17.5463 38.9865 17.5463C39.7246 17.5463 40.3252 16.9457 40.3252 16.2075C40.3253 15.4674 39.7247 14.8654 38.9865 14.8654ZM27.9048 21.393C28.643 21.393 29.2436 20.7924 29.2436 20.0542C29.2436 19.3142 28.643 18.7121 27.9048 18.7121C27.1647 18.7121 26.5627 19.3142 26.5627 20.0542C26.5628 20.7924 27.1648 21.393 27.9048 21.393ZM31.5987 18.7121C30.8587 18.7121 30.2567 19.3142 30.2567 20.0542C30.2567 20.7924 30.8587 21.393 31.5987 21.393C32.3369 21.393 32.9375 20.7924 32.9375 20.0542C32.9375 19.3142 32.3369 18.7121 31.5987 18.7121ZM35.2926 18.7121C34.5527 18.7121 33.9507 19.3142 33.9507 20.0542C33.9507 20.7924 34.5527 21.393 35.2926 21.393C36.0308 21.393 36.6313 20.7924 36.6313 20.0542C36.6313 19.3142 36.0308 18.7121 35.2926 18.7121ZM38.9865 18.7121C38.2465 18.7121 37.6445 19.3142 37.6445 20.0542C37.6445 20.7924 38.2465 21.393 38.9865 21.393C39.7246 21.393 40.3252 20.7924 40.3252 20.0542C40.3253 19.3142 39.7247 18.7121 38.9865 18.7121ZM24.9649 15.4534V42.0051C24.9649 43.6866 23.5955 45.0546 21.9121 45.0546H21.5766V47.4833C23.2771 49.1974 24.1415 51.1022 24.2158 53.2942C24.2912 55.5207 23.5049 57.7373 22.8115 59.4197C22.6143 59.8981 22.0669 60.1262 21.5883 59.9288C21.1101 59.7317 20.8821 59.1841 21.0792 58.7058C22.7511 54.6494 23.1533 51.5372 19.997 48.5594C19.8094 48.3825 19.7031 48.136 19.7031 47.878V36.1353C19.7031 35.1168 18.8745 34.2883 17.8561 34.2883C16.8359 34.2883 16.0059 35.117 16.0059 36.1353V44.1178C16.0059 44.6351 15.5865 45.0546 15.0691 45.0546H5.64164C3.96012 45.0546 2.59222 43.6866 2.59222 42.0051V40.1751C1.76079 41.4274 1.65617 42.9888 2.24959 44.9598L7.20751 58.7459C7.38258 59.2327 7.1299 59.7693 6.64309 59.9445C6.53835 59.9822 6.43139 60 6.32618 60C5.94223 60 5.58211 59.7621 5.44462 59.3799L0.478248 45.5708C0.472847 45.5559 0.467916 45.5408 0.463219 45.5257C-0.578384 42.0911 0.138914 39.3892 2.5921 37.4855V15.4534C2.5921 13.7719 3.96012 12.4039 5.64153 12.4039H21.9121C23.5955 12.4039 24.9649 13.7719 24.9649 15.4534ZM23.0914 15.4534C23.0914 14.8051 22.5624 14.2775 21.9122 14.2775H5.64164C4.99327 14.2775 4.46572 14.8049 4.46572 15.4534V37.959V42.0051C4.46572 42.6535 4.99327 43.181 5.64164 43.181H14.1324V36.1354C14.1324 34.0839 15.8029 32.4148 17.8563 32.4148C19.9078 32.4148 21.5767 34.0839 21.5767 36.1354V43.181H21.9122C22.5624 43.181 23.0914 42.6536 23.0914 42.0051V15.4534ZM13.7769 19.4794C11.1326 19.4794 8.59678 20.5444 6.44336 22.5591C6.06563 22.9126 6.04591 23.5053 6.39933 23.8831C6.58379 24.0803 6.83342 24.18 7.08364 24.18C7.31295 24.18 7.54285 24.0962 7.72344 23.9272C9.52344 22.2432 11.6167 21.353 13.777 21.353C15.9404 21.353 18.0334 22.2429 19.8299 23.9267C20.2073 24.2805 20.8002 24.2612 21.154 23.8837C21.5078 23.5062 21.4885 22.9134 21.1112 22.5595C18.9609 20.5446 16.4248 19.4794 13.7769 19.4794ZM19.2813 24.9731C17.6361 23.5958 15.7328 22.8677 13.777 22.8677C11.8195 22.8677 9.91702 23.596 8.27506 24.9738C7.87878 25.3062 7.827 25.8973 8.15964 26.2936C8.49217 26.6897 9.08312 26.7415 9.4794 26.4089C10.7796 25.318 12.2656 24.7413 13.777 24.7413C15.2875 24.7413 16.775 25.3182 18.0788 26.4096C18.2542 26.5565 18.4674 26.6282 18.6796 26.6282C18.9473 26.6282 19.2131 26.514 19.3984 26.2926C19.7303 25.8959 19.678 25.305 19.2813 24.9731ZM17.3835 27.405C16.2796 26.6533 15.0325 26.2559 13.7769 26.2559C12.5234 26.2559 11.2774 26.6533 10.1736 27.405C9.74594 27.6962 9.63533 28.279 9.92664 28.7066C10.2177 29.1342 10.8006 29.2448 11.2282 28.9536C12.0312 28.4067 12.8887 28.1295 13.777 28.1295C14.6675 28.1295 15.5261 28.4067 16.329 28.9536C16.4905 29.0635 16.6739 29.1161 16.8554 29.1161C17.1549 29.1161 17.4493 28.9729 17.6305 28.7066C17.9218 28.2791 17.8112 27.6963 17.3835 27.405Z" fill="#FF4136"/>
</svg>
