<svg width="60" height="60" viewBox="0 0 60 60" fill="none" xmlns="http://www.w3.org/2000/svg">
<path d="M17.5368 38.4092L19.1357 37.03V52.905C19.1357 53.3198 19.471 53.655 19.8857 53.655H39.9299C40.3447 53.655 40.6799 53.3198 40.6799 52.905V37.0308L42.2782 38.4092C42.4199 38.5315 42.5947 38.5915 42.7679 38.5915C42.9779 38.5915 43.1879 38.5037 43.3356 38.3313C43.6064 38.0178 43.5711 37.5438 43.2576 37.2738L30.3968 26.1799C30.1156 25.9369 29.6978 25.9369 29.4166 26.1799L16.5565 37.2738C16.243 37.5438 16.2078 38.0178 16.4785 38.3313C16.7485 38.6447 17.2218 38.6792 17.5368 38.4092ZM29.9071 27.7377L39.1792 35.7363V52.155H20.6357V35.7363L29.9071 27.7377Z" fill="black"/>
<path d="M59.2499 19.6527H48.6631V3.66145C48.6631 3.2467 48.3278 2.91146 47.9131 2.91146H39.3685C39.1547 1.27348 37.7665 0 36.0715 0H23.9299C22.2349 0 20.846 1.27348 20.6322 2.91146H12.0876C11.6729 2.91146 11.3376 3.2467 11.3376 3.66145V19.6527H0.750762C0.528016 19.6527 0.316519 19.7525 0.173271 19.9235C0.0315234 20.0952 -0.0284755 20.321 0.0127739 20.54L7.26892 59.3864C7.33567 59.7419 7.64541 59.9991 8.00691 59.9991H51.9945C52.3553 59.9991 52.6658 59.7419 52.7318 59.3871L59.9871 20.5407C60.0284 20.3217 59.9691 20.0952 59.8266 19.9242C59.6841 19.7525 59.4727 19.6527 59.2499 19.6527ZM22.0887 3.3412C22.0887 2.32572 22.9152 1.49998 23.9299 1.49998H36.0707C37.0862 1.49998 37.9112 2.32647 37.9112 3.3412V3.98169C37.9112 4.99718 37.0855 5.82292 36.0707 5.82292H23.9299C22.9144 5.82292 22.0887 4.99643 22.0887 3.98169V3.3412ZM12.8376 4.41144H20.6322C20.846 6.04866 22.2349 7.32289 23.9299 7.32289H36.0707C37.7657 7.32289 39.1539 6.04941 39.3677 4.41144H47.1623V19.6527H12.8376V4.41144ZM51.372 58.4991H8.6294L1.65375 21.1527H58.3469L51.372 58.4991Z" fill="black"/>
</svg>
