<svg width="60" height="61" viewBox="0 0 60 61" fill="none" xmlns="http://www.w3.org/2000/svg">
<path d="M49.787 43.0221L48.7871 42.0774C49.8904 40.9051 52.6073 38.0159 53.9727 36.4919C54.345 36.0782 54.476 35.5058 54.3312 34.9749L54.3174 34.9335C54.2347 34.637 54.0761 34.3749 53.8554 34.1681C53.621 33.9543 53.3383 33.8095 53.028 33.7543L53.2624 32.3959C53.8347 32.4993 54.3657 32.7613 54.7932 33.1544C55.207 33.5337 55.4966 34.0233 55.6483 34.5611L55.6621 34.6025C55.9379 35.5955 55.6897 36.6436 55.0001 37.409C53.6279 38.9468 50.8972 41.8499 49.787 43.0221Z" fill="black"/>
<path d="M37.3058 51.7038L37.1196 47.001C37.1196 46.9458 37.1196 46.8975 37.1196 46.8424V46.8286C37.1334 46.4493 37.1886 46.0356 37.292 45.5942C37.8437 43.1945 39.4504 41.1879 41.6984 40.0915L45.753 38.1055C46.2564 37.7952 46.7184 37.416 47.1253 36.9815L50.5386 33.3061C51.0834 32.72 51.8281 32.3821 52.6004 32.3476L53.3934 28.9481C53.4141 28.8653 53.421 28.7826 53.421 28.6929L53.1659 25.0037C53.1659 24.9141 53.159 24.8313 53.1521 24.7417C53.1107 23.7763 53.0693 22.7833 53.6555 21.7903C53.7934 21.5559 53.952 21.3421 54.1382 21.1422C54.8829 20.3423 55.6414 20.1768 56.5586 20.1768C56.5586 20.1768 56.5586 20.1768 56.5655 20.1768C57.2068 20.1768 57.8136 20.4181 58.2756 20.8525C58.7307 21.2801 59.0134 21.8524 59.0686 22.4799L59.9443 29.7756C59.9512 29.8445 59.9512 29.9066 59.9512 29.9755L59.9995 35.299C60.0202 37.6918 59.0617 40.0432 57.3791 41.7534L52.6487 46.539C52.1867 47.001 51.9109 47.6216 51.8695 48.2767L51.6557 51.7038L50.2766 51.6142L50.4904 48.187C50.5524 47.2009 50.9662 46.27 51.6626 45.5667L56.3931 40.7811C57.8205 39.333 58.6273 37.3401 58.6135 35.3128L58.5652 29.9824C58.5652 29.9548 58.5652 29.9273 58.5652 29.9066L57.6895 22.6109C57.6688 22.3282 57.5377 22.0593 57.3309 21.8662C57.1171 21.6731 56.8482 21.5628 56.5586 21.5628C55.8345 21.5628 55.5311 21.68 55.1449 22.0938C55.0277 22.2179 54.9312 22.3489 54.8415 22.5006C54.4623 23.1488 54.4899 23.8315 54.5243 24.7003C54.5312 24.7831 54.5312 24.8727 54.5381 24.9555L54.7933 28.6447C54.8002 28.8515 54.7795 29.0653 54.7312 29.2722L53.6624 33.8716L53.0211 33.7613C52.4763 33.6647 51.9247 33.8509 51.5454 34.2577L48.132 37.9331C47.6355 38.471 47.0632 38.933 46.4357 39.3123L46.3805 39.3399L42.2983 41.3396C40.4296 42.2567 39.0918 43.9255 38.6298 45.9183C38.547 46.27 38.4988 46.5941 38.4919 46.8906C38.4919 46.9251 38.4919 46.9665 38.4919 47.001L38.6781 51.6625L37.3058 51.7038Z" fill="black"/>
<path d="M36.2233 60.089C35.2923 60.089 34.5407 59.3374 34.5338 58.4064L34.52 52.683C34.52 51.7521 35.2717 50.9936 36.2026 50.9936L53.0418 50.9591C53.4969 50.9591 53.9176 51.1315 54.2348 51.4487C54.552 51.7659 54.7313 52.1934 54.7313 52.6417L54.7451 58.3651C54.7451 58.8133 54.5727 59.2408 54.2555 59.558C53.9383 59.8752 53.5107 60.0545 53.0625 60.0545L36.2233 60.089ZM53.0487 52.3382L36.2095 52.3727C36.0371 52.3727 35.8992 52.5106 35.8992 52.683L35.9129 58.4064C35.9129 58.5788 36.0509 58.7168 36.2233 58.7168L53.0625 58.6823C53.2349 58.6823 53.3728 58.5444 53.3728 58.372L53.359 52.6485C53.359 52.5382 53.3039 52.4624 53.2694 52.4279C53.2349 52.3934 53.1659 52.3382 53.0487 52.3382Z" fill="black"/>
<path d="M50.6076 56.7653C49.9732 56.7653 49.4561 56.2481 49.4561 55.6137C49.4561 54.9793 49.9732 54.4622 50.6076 54.4622C51.242 54.4622 51.7592 54.9793 51.7592 55.6137C51.7661 56.2481 51.2489 56.7653 50.6076 56.7653ZM50.6076 55.3862C50.4835 55.3862 50.3801 55.4896 50.3801 55.6137C50.3801 55.7379 50.4835 55.8413 50.6076 55.8413C50.7318 55.8413 50.8352 55.7379 50.8352 55.6137C50.8352 55.4896 50.7318 55.3862 50.6076 55.3862Z" fill="black"/>
<path d="M10.2198 43.0222C9.10958 41.8499 6.38579 38.9468 5.00665 37.4091C4.32398 36.6437 4.07573 35.5955 4.34467 34.6026L4.35846 34.5543C4.50327 34.0164 4.79978 33.5268 5.21352 33.1476C5.64106 32.7476 6.17202 32.4856 6.74436 32.389L6.97882 33.7475C6.66851 33.8027 6.37889 33.9406 6.15134 34.1612C5.93067 34.3681 5.77207 34.6301 5.68932 34.9266L5.67553 34.9749C5.53072 35.5059 5.66174 36.0782 6.03411 36.492C7.39945 38.0159 10.1164 40.9052 11.2197 42.0775L10.2198 43.0222Z" fill="black"/>
<path d="M22.7009 51.7039L21.3218 51.6487L21.508 46.9872C21.508 46.9528 21.508 46.9114 21.508 46.8769C21.5011 46.5873 21.4528 46.2632 21.3701 45.9115C20.908 43.9187 19.5703 42.2499 17.7015 41.3328L13.5917 39.3192L13.5641 39.3054C12.9366 38.9262 12.3712 38.4642 11.8678 37.9263L8.45444 34.2509C8.07517 33.8441 7.52352 33.6579 6.97876 33.7544L6.33746 33.8648L5.26863 29.2653C5.22036 29.0585 5.19967 28.8447 5.20657 28.6378V28.6171L5.46171 24.9486C5.46171 24.859 5.46861 24.7762 5.46861 24.6935C5.50308 23.8246 5.53067 23.142 5.1514 22.4938C5.06866 22.349 4.96522 22.211 4.85489 22.0938C4.46873 21.6801 4.16532 21.5697 3.44127 21.5629C3.15166 21.5629 2.87583 21.6732 2.66896 21.8663C2.46209 22.0593 2.33107 22.3214 2.31038 22.611V22.6386L1.43463 29.9066C1.43463 29.9273 1.43463 29.9549 1.43463 29.9756L1.38636 35.3059C1.37257 37.3402 2.17936 39.333 3.60677 40.7742L8.33721 45.5598C9.03367 46.2632 9.44741 47.1941 9.50948 48.1802L9.72324 51.6073L8.3441 51.697L8.13034 48.2698C8.08897 47.6147 7.81314 47.001 7.35113 46.5321L2.62069 41.7465C0.938141 40.0433 -0.020359 37.6919 0.000328089 35.2922L0.0417021 29.9618C0.0417021 29.8997 0.041702 29.8308 0.0485977 29.7687V29.748L0.92435 22.4731C0.979515 21.8525 1.26224 21.2732 1.71735 20.8457C2.18626 20.4113 2.79308 20.1699 3.42748 20.1699C3.42748 20.1699 3.42748 20.1699 3.43438 20.1699C4.3515 20.1699 5.11003 20.3354 5.85476 21.1353C6.03405 21.3284 6.19955 21.5491 6.33057 21.7766C6.9167 22.7765 6.87532 23.7695 6.83395 24.7349C6.82705 24.8176 6.82706 24.9073 6.82016 24.9969V25.0176L6.56502 28.6792C6.56502 28.7619 6.57191 28.8516 6.5926 28.9343L7.38561 32.3339C8.16482 32.3684 8.90265 32.7063 9.44741 33.2924L12.8608 36.9678C13.2676 37.4022 13.7296 37.7815 14.233 38.0918L18.2877 40.0778C20.5357 41.1811 22.1355 43.1877 22.694 45.5805C22.7975 46.0218 22.8526 46.4356 22.8664 46.8148C22.8664 46.8769 22.8664 46.9252 22.8664 46.9803V47.0079L22.7009 51.7039Z" fill="black"/>
<path d="M23.7836 60.089L6.94431 60.0545C6.0134 60.0545 5.25487 59.296 5.26177 58.3651L5.27556 52.6417C5.27556 52.1934 5.45485 51.7659 5.77205 51.4487C6.08925 51.1315 6.51678 50.9591 6.9719 50.9591L23.8112 50.9936C24.7421 50.9936 25.5006 51.7521 25.4937 52.683L25.4799 58.4064C25.4661 59.3374 24.7145 60.089 23.7836 60.089ZM6.9581 52.3382C6.84777 52.3382 6.77192 52.3934 6.73744 52.4279C6.70296 52.4624 6.6478 52.5313 6.6478 52.6485L6.63401 58.372C6.63401 58.5444 6.77192 58.6823 6.94431 58.6823L23.7836 58.7168C23.956 58.7168 24.0939 58.5788 24.0939 58.4064L24.1077 52.683C24.1077 52.5106 23.9698 52.3727 23.7974 52.3727L6.9581 52.3382Z" fill="black"/>
<path d="M9.39914 56.7653C8.76473 56.7653 8.24756 56.2481 8.24756 55.6137C8.24756 54.9793 8.76473 54.4622 9.39914 54.4622C10.0335 54.4622 10.5507 54.9793 10.5507 55.6137C10.5507 56.2481 10.0335 56.7653 9.39914 56.7653ZM9.39914 55.3862C9.27502 55.3862 9.17158 55.4896 9.17158 55.6137C9.17158 55.7379 9.27502 55.8413 9.39914 55.8413C9.52326 55.8413 9.6267 55.7379 9.6267 55.6137C9.6198 55.4896 9.52326 55.3862 9.39914 55.3862Z" fill="black"/>
<path d="M44.2982 33.7957H15.7087V27.3207H17.0879V32.4166H42.9191V15.3981H45.7877L30.0035 1.82046L14.2192 15.3981H17.0879V19.4596H15.7087V16.7772H12.4815C12.1712 16.7772 11.9023 16.591 11.792 16.3014C11.6816 16.0118 11.7575 15.6946 11.9919 15.4877L11.9988 15.4808L30.0035 0L48.0012 15.4877C48.2357 15.6877 48.3184 16.0187 48.2081 16.3014C48.1046 16.5841 47.8219 16.7772 47.5185 16.7772H44.2913V33.7957H44.2982Z" fill="black"/>
<path d="M17.0876 22.4524H15.7085V24.4797H17.0876V22.4524Z" fill="black"/>
<path d="M35.3336 33.7957H24.6729V20.5836C24.6729 19.963 25.1762 19.4596 25.7968 19.4596H34.2096C34.5061 19.4596 34.7888 19.5768 35.0026 19.7837C35.2164 19.9975 35.3336 20.2802 35.3336 20.5836V33.7957ZM26.052 32.4166H33.9544V20.8387H26.052V32.4166Z" fill="black"/>
<path d="M42.8571 12.8811L37.7061 8.44717V3.71673L38.4025 3.70984H42.8571L42.864 4.4063V12.8811H42.8571ZM39.0852 7.81277L41.478 9.87458V5.08208H39.0852V7.81277Z" fill="black"/>
</svg>
