<svg width="60" height="60" viewBox="0 0 60 60" fill="none" xmlns="http://www.w3.org/2000/svg">
<path d="M52.7645 0H46.5663H13.4337H7.23551C3.24586 0 0 3.24586 0 7.23551V13.4933V46.6261V52.7645C0 56.7541 3.24586 60 7.23551 60H16.5758C17.0701 60 17.4708 59.5993 17.4708 59.105C17.4708 58.6107 17.0701 58.2101 16.5758 58.2101H14.3285V54.3387C14.3285 52.7945 15.5848 51.5382 17.1291 51.5382H42.8708C44.4151 51.5382 45.6714 52.7945 45.6714 54.3387V58.2101H20.5137C20.0194 58.2101 19.6187 58.6107 19.6187 59.105C19.6187 59.5993 20.0194 60 20.5137 60H52.7645C56.7541 60 60 56.7541 60 52.7645V46.6261V13.4933V7.23551C60 3.24586 56.7541 0 52.7645 0ZM14.3285 1.78992H45.6715V5.77254C45.6715 7.32117 44.4115 8.58117 42.8629 8.58117H17.1371C15.5885 8.58117 14.3285 7.32129 14.3285 5.77254V1.78992ZM1.78992 14.3883H5.71688C7.26328 14.3883 8.52141 15.6464 8.52141 17.1928V42.9266C8.52141 44.473 7.26328 45.7311 5.71688 45.7311H1.78992V14.3883ZM58.2102 12.5984H54.2832C51.7499 12.5984 49.6888 14.6595 49.6888 17.1928V42.9266C49.6888 45.46 51.7499 47.5211 54.2832 47.5211H58.2102V52.7646C58.2101 55.7672 55.7672 58.2101 52.7645 58.2101H47.4613V54.3387C47.4613 51.8075 45.4021 49.7483 42.8708 49.7483H17.1291C14.5979 49.7483 12.5386 51.8075 12.5386 54.3387V58.2101H7.23551C4.23281 58.2101 1.78992 55.7672 1.78992 52.7645V47.5209H5.71688C8.25023 47.5209 10.3113 45.4598 10.3113 42.9265V17.1928C10.3113 14.6595 8.25023 12.5984 5.71688 12.5984H1.78992V7.23551C1.78992 4.23281 4.23281 1.78992 7.23551 1.78992H12.5387V5.77254C12.5387 8.30812 14.6017 10.371 17.1373 10.371H42.8629C45.3984 10.371 47.4614 8.30812 47.4614 5.77254V1.78992H52.7646C55.7673 1.78992 58.2102 4.23281 58.2102 7.23551V12.5984ZM58.2101 14.3883V45.7311H54.2831C52.7367 45.7311 51.4786 44.473 51.4786 42.9266V17.1928C51.4786 15.6464 52.7367 14.3883 54.2831 14.3883H58.2101Z" fill="#FF4136"/>
<path d="M43.3222 12.3994H24.5308C24.0365 12.3994 23.6358 12.8001 23.6358 13.2944C23.6358 13.7887 24.0365 14.1893 24.5308 14.1893H43.3222C44.6943 14.1893 45.8105 15.3057 45.8105 16.6777V43.3222C45.8105 44.6943 44.6942 45.8105 43.3222 45.8105H16.6777C15.3055 45.8105 14.1893 44.6942 14.1893 43.3222V16.6777C14.1893 15.3055 15.3057 14.1893 16.6777 14.1893H20.4538C20.9481 14.1893 21.3488 13.7887 21.3488 13.2944C21.3488 12.8001 20.9481 12.3994 20.4538 12.3994H16.6777C14.3186 12.3994 12.3994 14.3186 12.3994 16.6777V43.3222C12.3994 45.6813 14.3186 47.6004 16.6777 47.6004H43.3222C45.6813 47.6004 47.6004 45.6813 47.6004 43.3222V16.6777C47.6004 14.3186 45.6813 12.3994 43.3222 12.3994Z" fill="#FF4136"/>
<path d="M43.0136 15.3826H16.9863C16.102 15.3826 15.3826 16.102 15.3826 16.9863V43.0136C15.3826 43.8979 16.102 44.6173 16.9863 44.6173H43.0136C43.8979 44.6173 44.6173 43.8979 44.6173 43.0136V16.9863C44.6173 16.102 43.8979 15.3826 43.0136 15.3826ZM17.1724 17.1725H24.5308V18.476H17.1724V17.1725ZM17.1724 20.2659H24.5308V21.5199H17.1724V20.2659ZM17.1724 23.3097H24.5308V24.5639H17.1724V23.3097ZM17.1724 26.3537H24.5308V27.6077H17.1724V26.3537ZM17.1724 29.3976H24.5308V30.6517H17.1724V29.3976ZM17.1724 32.4416H24.5308V33.6956H17.1724V32.4416ZM17.1724 35.4855H24.5308V36.7396H17.1724V35.4855ZM24.5309 42.8275H17.1725V41.5734H24.5309V42.8275ZM24.5309 39.7835H17.1725V38.5294H24.5309V39.7835ZM33.6792 42.8275H26.3207V41.5734H33.6792V42.8275ZM33.6792 39.7835H26.3207V38.5294H33.6792V39.7835ZM33.6792 36.7396H26.3207V35.4855H33.6792V36.7396ZM33.6792 33.6956H26.3207V32.4416H33.6792V33.6956ZM33.6792 30.6517H26.3207V29.3976H33.6792V30.6517ZM33.6792 27.6077H26.3207V26.3537H33.6792V27.6077ZM33.6792 24.5639H26.3207V23.3097H33.6792V24.5639ZM33.6792 21.5199H26.3207V20.2659H33.6792V21.5199ZM33.6792 18.476H26.3207V17.1725H33.6792V18.476ZM42.8275 42.8275H35.4691V42.8274V41.5734H42.8275V42.8275ZM42.8275 39.7835H35.4691V38.5294H42.8275V39.7835ZM42.8275 33.6956H40.3814C39.8871 33.6956 39.4864 34.0962 39.4864 34.5905C39.4863 35.0848 39.8871 35.4855 40.3812 35.4855H42.8274V36.7396H35.4691V35.4855H36.6822C37.1765 35.4855 37.5772 35.0848 37.5772 34.5905C37.5772 34.0962 37.1765 33.6956 36.6822 33.6956H35.4691V32.4416H42.8275V33.6956ZM42.8275 30.6517H35.4691V29.3976H42.8275V30.6517ZM42.8275 27.6077H35.4691V26.3537H42.8275V27.6077ZM42.8275 24.5639H35.4691V23.3097H42.8275V24.5639ZM42.8275 21.5199H42.8274H35.4691V20.2659H42.8275V21.5199ZM42.8275 18.476H42.8274H35.4691V17.1725H42.8275V18.476Z" fill="#FF4136"/>
<path d="M5.03119 17.0532C4.53689 17.0532 4.13623 17.4539 4.13623 17.9482V41.7337C4.13623 42.228 4.53689 42.6287 5.03119 42.6287C5.52549 42.6287 5.92615 42.228 5.92615 41.7337V17.9482C5.92615 17.4539 5.52549 17.0532 5.03119 17.0532Z" fill="#FF4136"/>
<path d="M41.8927 3.98193H18.1071C17.6128 3.98193 17.2122 4.3826 17.2122 4.87689C17.2122 5.37119 17.6128 5.77186 18.1071 5.77186H41.8927C42.387 5.77186 42.7876 5.37119 42.7876 4.87689C42.7876 4.3826 42.387 3.98193 41.8927 3.98193Z" fill="#FF4136"/>
<path d="M41.8927 53.9792H18.1071C17.6128 53.9792 17.2122 54.3799 17.2122 54.8742C17.2122 55.3685 17.6128 55.7692 18.1071 55.7692H41.8927C42.387 55.7692 42.7876 55.3684 42.7876 54.8742C42.7876 54.3799 42.387 53.9792 41.8927 53.9792Z" fill="#FF4136"/>
<path d="M54.8444 17.0532C54.3502 17.0532 53.9495 17.454 53.9495 17.9482V41.7337C53.9495 42.228 54.3501 42.6287 54.8444 42.6287C55.3387 42.6287 55.7394 42.228 55.7394 41.7337V17.9482C55.7394 17.4539 55.3387 17.0532 54.8444 17.0532Z" fill="#FF4136"/>
</svg>
