<svg width="60" height="60" viewBox="0 0 60 60" fill="none" xmlns="http://www.w3.org/2000/svg">
<path d="M50.5664 15C53.6357 15 56.1328 12.5029 56.1328 9.43359C56.1328 6.36434 53.6357 3.86719 50.5664 3.86719C47.4971 3.86719 45 6.36434 45 9.43359C45 12.5029 47.4971 15 50.5664 15ZM50.5664 5.625C52.6664 5.625 54.375 7.33359 54.375 9.43359C54.375 11.5336 52.6664 13.2422 50.5664 13.2422C48.4664 13.2422 46.7578 11.5336 46.7578 9.43359C46.7578 7.33359 48.4664 5.625 50.5664 5.625Z" fill="#FF4136"/>
<path d="M50.5664 2.63074C51.0518 2.63074 51.4453 2.23723 51.4453 1.75184V0.878906C51.4453 0.393516 51.0518 0 50.5664 0C50.081 0 49.6875 0.393516 49.6875 0.878906V1.75184C49.6875 2.23723 50.081 2.63074 50.5664 2.63074Z" fill="#FF4136"/>
<path d="M49.6875 17.1152V17.9882C49.6875 18.4736 50.081 18.8671 50.5664 18.8671C51.0518 18.8671 51.4453 18.4736 51.4453 17.9882V17.1152C51.4453 16.6298 51.0518 16.2363 50.5664 16.2363C50.081 16.2363 49.6875 16.6298 49.6875 17.1152Z" fill="#FF4136"/>
<path d="M45.9643 3.22038C46.1271 3.50233 46.4225 3.65995 46.7263 3.65995C46.8753 3.65995 47.0266 3.62186 47.1649 3.54205C47.5853 3.29936 47.7293 2.76182 47.4866 2.34147L47.0501 1.58549C46.8074 1.16502 46.2697 1.02135 45.8495 1.26381C45.4291 1.50651 45.2851 2.04405 45.5278 2.4644L45.9643 3.22038Z" fill="#FF4136"/>
<path d="M53.9677 15.3251C53.5473 15.5678 53.4033 16.1054 53.646 16.5257L54.0825 17.2817C54.2453 17.5637 54.5407 17.7213 54.8444 17.7213C54.9935 17.7213 55.1448 17.6832 55.2831 17.6034C55.7034 17.3607 55.8475 16.8232 55.6048 16.4028L55.1682 15.6468C54.9257 15.2264 54.3879 15.0826 53.9677 15.3251Z" fill="#FF4136"/>
<path d="M42.7184 5.91734L43.4744 6.35386C43.6128 6.43378 43.7639 6.47175 43.913 6.47175C44.2167 6.47175 44.5122 6.31413 44.6749 6.03218C44.9176 5.61183 44.7736 5.07429 44.3533 4.8316L43.5973 4.39507C43.1768 4.15226 42.6394 4.29628 42.3967 4.71675C42.154 5.1371 42.298 5.67464 42.7184 5.91734Z" fill="#FF4136"/>
<path d="M56.7797 14.0356L57.5356 14.4721C57.674 14.552 57.8252 14.59 57.9743 14.59C58.278 14.59 58.5735 14.4324 58.7362 14.1504C58.9789 13.73 58.8349 13.1925 58.4145 12.9498L57.6586 12.5133C57.2382 12.2704 56.7007 12.4145 56.458 12.835C56.2153 13.2552 56.3593 13.7927 56.7797 14.0356Z" fill="#FF4136"/>
<path d="M42.0117 10.3125H42.8846C43.37 10.3125 43.7636 9.91898 43.7636 9.43359C43.7636 8.9482 43.37 8.55469 42.8846 8.55469H42.0117C41.5263 8.55469 41.1328 8.9482 41.1328 9.43359C41.1328 9.91898 41.5263 10.3125 42.0117 10.3125Z" fill="#FF4136"/>
<path d="M57.3691 9.43359C57.3691 9.91898 57.7627 10.3125 58.248 10.3125H59.121C59.6064 10.3125 59.9999 9.91898 59.9999 9.43359C59.9999 8.9482 59.6064 8.55469 59.121 8.55469H58.248C57.7627 8.55469 57.3691 8.9482 57.3691 9.43359Z" fill="#FF4136"/>
<path d="M43.4744 12.5134L42.7184 12.9499C42.298 13.1926 42.154 13.7301 42.3967 14.1505C42.5595 14.4324 42.8549 14.59 43.1587 14.59C43.3077 14.59 43.459 14.5519 43.5973 14.4721L44.3533 14.0356C44.7736 13.7929 44.9176 13.2554 44.6749 12.835C44.4323 12.4147 43.8946 12.2708 43.4744 12.5134Z" fill="#FF4136"/>
<path d="M57.2199 6.47189C57.369 6.47189 57.5203 6.43381 57.6586 6.354L58.4145 5.91748C58.8349 5.67478 58.9789 5.13724 58.7362 4.71689C58.4934 4.29642 57.9558 4.15263 57.5356 4.39521L56.7797 4.83174C56.3593 5.07443 56.2153 5.61197 56.458 6.03232C56.6208 6.31427 56.9162 6.47189 57.2199 6.47189Z" fill="#FF4136"/>
<path d="M45.9643 15.6467L45.5278 16.4027C45.2851 16.8231 45.4291 17.3606 45.8495 17.6033C45.9879 17.6832 46.1391 17.7212 46.2881 17.7212C46.5919 17.7212 46.8873 17.5636 47.0501 17.2816L47.4866 16.5256C47.7293 16.1053 47.5853 15.5678 47.1649 15.3251C46.7444 15.0821 46.207 15.2263 45.9643 15.6467Z" fill="#FF4136"/>
<path d="M53.9677 3.54221C54.106 3.62213 54.2572 3.6601 54.4063 3.6601C54.71 3.6601 55.0055 3.50248 55.1682 3.22053L55.6048 2.46455C55.8475 2.0442 55.7034 1.50666 55.2831 1.26397C54.8627 1.02116 54.3252 1.16518 54.0825 1.58565L53.646 2.34163C53.4033 2.76198 53.5473 3.29952 53.9677 3.54221Z" fill="#FF4136"/>
<path d="M57.9492 54.5833V52.485C57.9492 51.9996 57.5557 51.6061 57.0703 51.6061C56.5849 51.6061 56.1914 51.9996 56.1914 52.485V54.4922H46.9336V42.1875H56.1914V48.735C56.1914 49.2204 56.5849 49.6139 57.0703 49.6139C57.5557 49.6139 57.9492 49.2204 57.9492 48.735V41.7774C57.9492 41.0343 57.3447 40.4297 56.6016 40.4297H52.389V21.9441C52.389 21.4587 51.9955 21.0652 51.5101 21.0652H22.1552V16.106L34.777 19.8748H34.7771C34.9499 19.9263 35.1241 19.9508 35.2957 19.9508C36.0779 19.9508 36.8021 19.4408 37.0372 18.6539L37.5285 17.0087L40.1673 17.7967C40.2512 17.8218 40.3358 17.8336 40.4191 17.8336C40.7975 17.8336 41.1471 17.5872 41.261 17.206C41.3999 16.7408 41.1354 16.2512 40.6703 16.1122L5.86066 5.71865C5.39531 5.57966 4.90582 5.84427 4.76695 6.30939C4.62809 6.77451 4.89258 7.26412 5.3577 7.4031L7.99641 8.19107L7.50516 9.83626C7.36629 10.3011 7.41691 10.7923 7.64742 11.2192C7.87805 11.6461 8.26102 11.9576 8.7259 12.0965L20.3972 15.5814V24.2578H7.47293C6.98754 24.2578 6.59402 24.6513 6.59402 25.1367C6.59402 25.6221 6.98754 26.0156 7.47293 26.0156H41.7188V42.3047H1.75781V26.0156H3.75902C4.24441 26.0156 4.63793 25.6221 4.63793 25.1367C4.63793 24.6513 4.24441 24.2578 3.75902 24.2578H0.878906C0.393516 24.2578 0 24.6513 0 25.1367V43.1836C0 43.669 0.393516 44.0625 0.878906 44.0625H3.39844V54.4922H2.75391C1.23539 54.4922 0 55.7276 0 57.2461C0 58.7646 1.23539 60 2.75391 60H57.2461C58.7646 60 60 58.7646 60 57.2461C60 55.9705 59.1282 54.8947 57.9492 54.5833ZM9.19418 10.3835C9.1827 10.3622 9.18785 10.3446 9.18961 10.339L9.6757 8.7108L35.839 16.523L35.3529 18.1512C35.3436 18.1821 35.3113 18.1998 35.2799 18.1906L21.5449 14.0893C21.5337 14.0857 21.5224 14.0823 21.5109 14.0792L9.22898 10.4119C9.22324 10.4101 9.20578 10.405 9.19418 10.3835ZM22.1552 24.2578V22.823H50.6312V40.4297H46.5234C45.7803 40.4297 45.1758 41.0343 45.1758 41.7774V54.4922H43.4766V25.1367C43.4766 24.6513 43.083 24.2578 42.5977 24.2578H22.1552ZM41.7188 44.0625V54.4922H39.9609V47.6367C39.9609 47.1513 39.5674 46.7578 39.082 46.7578H27.3633C26.8779 46.7578 26.4844 47.1513 26.4844 47.6367V54.4922H14.1797V52.5451C14.1797 52.0597 13.7862 51.6662 13.3008 51.6662C12.8154 51.6662 12.4219 52.0597 12.4219 52.5451V54.4922H8.67188V44.0625H12.4219V48.7711C12.4219 49.2565 12.8154 49.65 13.3008 49.65C13.7862 49.65 14.1797 49.2565 14.1797 48.7711V44.0625H41.7188ZM38.2031 54.4922H28.2422V48.5156H38.2031V54.4922ZM5.15625 44.0625H6.91406V54.4922H5.15625V44.0625ZM57.2461 58.2422H2.75391C2.20465 58.2422 1.75781 57.7954 1.75781 57.2461C1.75781 56.6968 2.20465 56.25 2.75391 56.25H57.2461C57.7954 56.25 58.2422 56.6968 58.2422 57.2461C58.2422 57.7954 57.7954 58.2422 57.2461 58.2422Z" fill="#FF4136"/>
<path d="M3.51562 28.6523V39.668C3.51562 40.1534 3.90914 40.5469 4.39453 40.5469H39.082C39.5674 40.5469 39.9609 40.1534 39.9609 39.668V28.6523C39.9609 28.167 39.5674 27.7734 39.082 27.7734H4.39453C3.90914 27.7734 3.51562 28.167 3.51562 28.6523ZM15.5859 38.7891V29.5312H27.8906V38.7891H15.5859ZM38.2031 38.7891H29.6484V29.5312H38.2031V38.7891ZM5.27344 29.5312H13.8281V38.7891H5.27344V29.5312Z" fill="#FF4136"/>
<path d="M53.1882 44.0629C52.8449 43.7196 52.2884 43.7196 51.9453 44.0629L49.958 46.0501C49.6148 46.3934 49.6148 46.9499 49.958 47.293L51.2005 48.5355L49.8321 49.9039C49.4889 50.2472 49.4889 50.8036 49.8321 51.1468C50.0037 51.3185 50.2287 51.4043 50.4536 51.4043C50.6785 51.4043 50.9035 51.3185 51.075 51.1468L53.0649 49.157C53.2298 48.9922 53.3223 48.7686 53.3223 48.5355C53.3223 48.3025 53.2298 48.0789 53.0649 47.9141L51.8223 46.6716L53.1882 45.3057C53.5314 44.9626 53.5314 44.4061 53.1882 44.0629Z" fill="#FF4136"/>
</svg>
