<svg width="16" height="16" viewBox="0 0 16 16" fill="none" xmlns="http://www.w3.org/2000/svg">
<g clip-path="url(#clip0_1764_6002)">
<path d="M12.1642 10.5843C11.6415 10.0683 10.9889 10.0683 10.4695 10.5843C10.0733 10.9772 9.67711 11.3701 9.28756 11.7696C9.18102 11.8795 9.09112 11.9028 8.96128 11.8295C8.70491 11.6897 8.43189 11.5765 8.18552 11.4233C7.03686 10.7009 6.07464 9.77194 5.22231 8.72649C4.79947 8.2071 4.42324 7.65108 4.16021 7.02515C4.10694 6.89863 4.11693 6.81539 4.22014 6.71218C4.61635 6.32929 5.00256 5.93642 5.39211 5.54354C5.93481 4.99751 5.93481 4.35826 5.38878 3.8089C5.07914 3.49593 4.7695 3.18962 4.45986 2.87665C4.14023 2.55703 3.82394 2.23407 3.50098 1.91777C2.97826 1.40837 2.32568 1.40837 1.80629 1.9211C1.40676 2.31398 1.02387 2.71684 0.617677 3.10306C0.241449 3.45931 0.0516707 3.89546 0.0117173 4.40487C-0.0515422 5.2339 0.151554 6.01632 0.437887 6.77877C1.02387 8.35693 1.91616 9.75862 2.99823 11.0438C4.45986 12.7818 6.20449 14.1568 8.24545 15.149C9.16437 15.5951 10.1166 15.9381 11.1521 15.9947C11.8646 16.0346 12.4838 15.8548 12.9799 15.2988C13.3195 14.9193 13.7024 14.573 14.062 14.2101C14.5947 13.6707 14.598 13.0182 14.0687 12.4854C13.4361 11.8495 12.8001 11.2169 12.1642 10.5843Z" fill="white"/>
<path d="M11.5283 7.93077L12.7569 7.72101C12.5638 6.59233 12.0311 5.57019 11.222 4.7578C10.3663 3.90213 9.28426 3.36276 8.09232 3.19629L7.91919 4.43151C8.84145 4.56136 9.68047 4.97754 10.343 5.6401C10.969 6.26604 11.3785 7.05845 11.5283 7.93077Z" fill="white"/>
<path d="M13.4493 2.59031C12.031 1.17197 10.2364 0.276344 8.25541 0L8.08228 1.23523C9.79361 1.47495 11.3451 2.25071 12.5704 3.47262C13.7323 4.63459 14.4948 6.10288 14.7711 7.71766L15.9997 7.50791C15.6767 5.63676 14.7944 3.93874 13.4493 2.59031Z" fill="white"/>
</g>
<defs>
<clipPath id="clip0_1764_6002">
<rect width="16" height="16" fill="white"/>
</clipPath>
</defs>
</svg>
