<svg width="17" height="16" viewBox="0 0 17 16" fill="none" xmlns="http://www.w3.org/2000/svg">
<path d="M12.7848 9.34597C12.714 9.34597 12.6411 9.35616 12.5681 9.37628L12.2937 9.45189L11.8894 8.4671C11.6628 7.91502 10.9928 7.46588 10.396 7.46588H5.9587C5.3619 7.46588 4.69189 7.91509 4.46531 8.46716L4.06173 9.45014L3.79387 9.37635C3.72092 9.35623 3.64803 9.34603 3.57722 9.34603C3.22122 9.34603 2.96277 9.60143 2.96277 9.95328C2.96277 10.3007 3.21629 10.5931 3.55989 10.6809C3.37147 11.2013 3.22505 11.9812 3.22505 12.4936V14.5892C3.22505 15.0366 3.58897 15.4005 4.03635 15.4005H4.33381C4.7812 15.4005 5.14512 15.0366 5.14512 14.5892V14.1972H11.2095V14.5892C11.2095 15.0366 11.5734 15.4005 12.0208 15.4005H12.3184C12.7658 15.4005 13.1297 15.0366 13.1297 14.5892V12.4936C13.1297 11.9817 12.9835 11.2028 12.7954 10.6825C13.1424 10.5968 13.3992 10.3028 13.3992 9.95328C13.3992 9.60137 13.1408 9.34597 12.7848 9.34597ZM4.5661 10.1637L5.2256 8.55706C5.36119 8.22682 5.76418 7.95662 6.12115 7.95662H10.2337C10.5907 7.95662 10.9937 8.22682 11.1292 8.55706L11.7887 10.1637C11.9243 10.4939 11.7432 10.7641 11.3862 10.7641H4.96864C4.61167 10.7641 4.43052 10.4939 4.5661 10.1637ZM6.31463 12.7762C6.31463 12.9547 6.1686 13.1007 5.99011 13.1007H4.64412C4.46563 13.1007 4.3196 12.9547 4.3196 12.7762V12.2393C4.3196 12.0609 4.46563 11.9148 4.64412 11.9148H5.99011C6.1686 11.9148 6.31463 12.0609 6.31463 12.2393V12.7762ZM12.0205 12.7762C12.0205 12.9547 11.8744 13.1007 11.6959 13.1007H10.3501C10.1716 13.1007 10.0255 12.9547 10.0255 12.7762V12.2393C10.0255 12.0609 10.1716 11.9148 10.3501 11.9148H11.6959C11.8744 11.9148 12.0205 12.0609 12.0205 12.2393V12.7762Z" fill="#4E4E4E"/>
<path d="M16.0019 4.46212L8.54306 0.0899577C8.44408 0.031933 8.3155 0 8.18102 0C8.04654 0 7.91796 0.031933 7.81898 0.0899577L0.360155 4.46212C0.154862 4.58245 0 4.85272 0 5.09072V15.5132C0 15.7816 0.218339 16 0.486784 16H1.32483C1.59328 16 1.81161 15.7816 1.81161 15.5132V6.69347C1.81161 6.60403 1.88437 6.53121 1.97388 6.53121H14.388C14.4775 6.53121 14.5503 6.60403 14.5503 6.69347V15.5132C14.5503 15.7816 14.7686 16 15.0371 16H15.8752C16.1436 16 16.362 15.7816 16.362 15.5132V5.09072C16.362 4.85272 16.2072 4.58245 16.0019 4.46212Z" fill="#4E4E4E"/>
</svg>
