<svg width="32" height="32" viewBox="0 0 32 32" fill="none" xmlns="http://www.w3.org/2000/svg">
<path d="M20.7542 20.0004L30.8938 9.86133C30.9187 9.95008 30.9319 10.0417 30.9333 10.1339V29.867C30.9319 29.9592 30.9187 30.0508 30.8938 30.1395L20.7542 20.0004Z" fill="#03060E"/>
<path d="M29.8664 9.06738C29.9586 9.06864 30.0502 9.08209 30.1389 9.10738L19.9998 19.2465L9.86072 9.10738C9.9494 9.08209 10.041 9.06864 10.1332 9.06738H29.8664Z" fill="#03060E"/>
<path d="M9.10624 30.1395C9.08136 30.0508 9.0681 29.9592 9.06677 29.867V10.1339C9.0681 10.0417 9.08136 9.95008 9.10624 9.86133L19.2459 20.0004L9.10624 30.1395Z" fill="#03060E"/>
<path d="M10.1332 30.934C10.041 30.9327 9.9494 30.9193 9.86072 30.894L19.9998 20.7549L30.1389 30.894C30.0502 30.9193 29.9586 30.9327 29.8664 30.934H10.1332Z" fill="#03060E"/>
<path d="M5.8671 8H0.533816C0.239267 8 0.000488281 8.23878 0.000488281 8.53333C0.000488281 8.82788 0.239267 9.06666 0.533816 9.06666H5.8671C6.16165 9.06666 6.40043 8.82788 6.40043 8.53333C6.40043 8.23878 6.16165 8 5.8671 8Z" fill="#03060E"/>
<path d="M0.533816 31.9998H5.8671C6.16165 31.9998 6.40043 31.761 6.40043 31.4664C6.40043 31.1719 6.16165 30.9331 5.8671 30.9331H0.533816C0.239267 30.9331 0.000488281 31.1719 0.000488281 31.4664C0.000488281 31.761 0.239267 31.9998 0.533816 31.9998Z" fill="#03060E"/>
<path d="M5.45675 14.2078C5.64526 14.4343 5.9817 14.4652 6.20821 14.2766C6.43472 14.0881 6.46552 13.7517 6.27701 13.5252L3.61037 10.3252C3.50904 10.2033 3.35875 10.1328 3.20024 10.1328C3.04173 10.1328 2.89144 10.2033 2.79011 10.3252L0.123469 13.5252C-0.0650428 13.7517 -0.0342403 14.0881 0.192268 14.2766C0.418776 14.4652 0.755216 14.4343 0.943727 14.2078L2.66691 12.1396V27.86L0.943727 25.7917C0.755216 25.5652 0.418776 25.5344 0.192268 25.7229C-0.0342403 25.9114 -0.0650428 26.2479 0.123469 26.4744L2.79011 29.6744C2.89225 29.7949 3.04225 29.8644 3.20024 29.8644C3.35823 29.8644 3.50822 29.7949 3.61037 29.6744L6.27701 26.4744C6.46552 26.2479 6.43472 25.9114 6.20821 25.7229C5.9817 25.5344 5.64526 25.5652 5.45675 25.7917L3.73357 27.86V12.1396L5.45675 14.2078Z" fill="#03060E"/>
<path d="M31.4667 0C31.1721 0 30.9333 0.238779 30.9333 0.533328V5.86661C30.9333 6.16116 31.1721 6.39994 31.4667 6.39994C31.7612 6.39994 32 6.16116 32 5.86661V0.533328C32 0.238779 31.7612 0 31.4667 0Z" fill="#03060E"/>
<path d="M9.06702 5.86661V0.533328C9.06702 0.238779 8.82824 0 8.53369 0C8.23915 0 8.00037 0.238779 8.00037 0.533328V5.86661C8.00037 6.16116 8.23915 6.39994 8.53369 6.39994C8.82824 6.39994 9.06702 6.16116 9.06702 5.86661Z" fill="#03060E"/>
<path d="M14.2771 0.192308C14.1865 0.0833962 14.0563 0.0149924 13.9153 0.0021856C13.7742 -0.0106212 13.6338 0.0332214 13.5251 0.124042L10.3251 2.79068C10.2117 2.89798 10.1432 3.0444 10.1337 3.20028C10.1438 3.35601 10.2121 3.50223 10.3251 3.60988L13.5251 6.27652C13.6714 6.39865 13.8718 6.43344 14.0508 6.36778C14.2297 6.30212 14.36 6.14598 14.3926 5.95818C14.4252 5.77039 14.3552 5.57946 14.2088 5.45732L12.14 3.73361H27.8604L25.7916 5.45732C25.6453 5.57946 25.5753 5.77039 25.6079 5.95818C25.6405 6.14598 25.7708 6.30212 25.9497 6.36778C26.1287 6.43344 26.329 6.39865 26.4754 6.27652L29.6753 3.60988C29.7885 3.50236 29.8569 3.35606 29.8668 3.20028C29.8643 3.0427 29.7946 2.8937 29.6753 2.79068L26.4754 0.124042C26.2492 -0.0647636 25.9127 -0.0344387 25.7239 0.191775C25.5351 0.417989 25.5654 0.754428 25.7916 0.943234L27.8604 2.66695H12.14L14.2088 0.943234C14.435 0.75468 14.4655 0.418549 14.2771 0.192308Z" fill="#03060E"/>
</svg>
