<svg width="30" height="34" viewBox="0 0 30 34" fill="none" xmlns="http://www.w3.org/2000/svg">
<path fill-rule="evenodd" clip-rule="evenodd" d="M17.3289 0.490359L27.4294 3.85223C28.978 4.14577 30 5.46642 30 6.99504V17.0105C30 24.0099 25.5931 30.2021 18.9978 32.5969L18.9864 32.601L17.8546 32.9777C16.1292 33.6188 14.0306 33.6052 12.1607 32.9828L11.0136 32.601L11.0022 32.5969C4.40689 30.2021 0 24.0099 0 17.0105V6.99504C0 5.46642 1.02196 4.14577 2.57058 3.85223L12.6943 0.482613C14.1956 -0.148525 15.9434 -0.175727 17.3289 0.490359ZM16.5848 2.13175C15.7197 1.69985 14.4855 1.67544 13.3672 2.154L13.3328 2.16877L3.01076 5.60432L2.94114 5.61594C2.26046 5.72916 1.80145 6.28049 1.80145 6.99504V17.0105C1.80145 23.2351 5.71672 28.756 11.6058 30.8995L12.7296 31.2735C14.2603 31.783 15.9395 31.7713 17.2391 31.2846L17.2546 31.2788L18.3942 30.8995C24.2833 28.756 28.1985 23.2351 28.1985 17.0105V6.99504C28.1985 6.28049 27.7395 5.72916 27.0589 5.61594L26.9893 5.60432L16.6421 2.16039L16.5848 2.13175Z" fill="white"/>
<path fill-rule="evenodd" clip-rule="evenodd" d="M21.4141 12.882C21.7658 13.2337 21.7658 13.804 21.4141 14.1558L14.6375 20.9324C14.2857 21.2841 13.7154 21.2841 13.3637 20.9324L9.48652 17.0552C9.1347 16.7035 9.1347 16.1331 9.48652 15.7814C9.83826 15.4296 10.4085 15.4296 10.7603 15.7814L14.0006 19.0217L20.1403 12.882C20.492 12.5302 21.0623 12.5302 21.4141 12.882Z" fill="white"/>
</svg>
