<svg width="36" height="36" viewBox="0 0 36 36" fill="none" xmlns="http://www.w3.org/2000/svg">
<path d="M35.3793 14.2759H32.3938C31.7264 11.7085 30.3856 9.3659 28.5098 7.49016C26.6341 5.61442 24.2915 4.27359 21.7241 3.60621V0.62069C21.7241 0.456072 21.6587 0.298198 21.5423 0.181796C21.4259 0.0653939 21.2681 0 21.1034 0H14.8965C14.7319 0 14.5741 0.0653939 14.4577 0.181796C14.3413 0.298198 14.2759 0.456072 14.2759 0.62069V3.60621C11.7085 4.27359 9.3659 5.61442 7.49016 7.49016C5.61442 9.3659 4.27359 11.7085 3.60621 14.2759H0.62069C0.456072 14.2759 0.298198 14.3413 0.181796 14.4577C0.0653939 14.5741 0 14.7319 0 14.8965V21.1034C0 21.2681 0.0653939 21.4259 0.181796 21.5423C0.298198 21.6587 0.456072 21.7241 0.62069 21.7241H3.60621C4.27359 24.2915 5.61442 26.6341 7.49016 28.5098C9.3659 30.3856 11.7085 31.7264 14.2759 32.3938V35.3793C14.2759 35.5439 14.3413 35.7018 14.4577 35.8182C14.5741 35.9346 14.7319 36 14.8965 36H21.1034C21.2681 36 21.4259 35.9346 21.5423 35.8182C21.6587 35.7018 21.7241 35.5439 21.7241 35.3793V32.3938C24.2915 31.7264 26.6341 30.3856 28.5098 28.5098C30.3856 26.6341 31.7264 24.2915 32.3938 21.7241H35.3793C35.5439 21.7241 35.7018 21.6587 35.8182 21.5423C35.9346 21.4259 36 21.2681 36 21.1034V14.8965C36 14.7319 35.9346 14.5741 35.8182 14.4577C35.7018 14.3413 35.5439 14.2759 35.3793 14.2759ZM15.5172 1.24138H20.4828V6.2069H15.5172V1.24138ZM1.24138 15.5172H6.2069V20.4828H1.24138V15.5172ZM20.4828 34.7586H15.5172V29.7931H20.4828V34.7586ZM21.7241 31.1152V29.1724C21.7241 29.0078 21.6587 28.8499 21.5423 28.7335C21.4259 28.6171 21.2681 28.5517 21.1034 28.5517H14.8965C14.7319 28.5517 14.5741 28.6171 14.4577 28.7335C14.3413 28.8499 14.2759 29.0078 14.2759 29.1724V31.14C12.0378 30.501 10.0003 29.3005 8.35667 27.6525C6.71306 26.0046 5.51796 23.9639 4.88483 21.7241H6.82759C6.9922 21.7241 7.15008 21.6587 7.26648 21.5423C7.38288 21.4259 7.44827 21.2681 7.44827 21.1034V14.8965C7.44827 14.7319 7.38288 14.5741 7.26648 14.4577C7.15008 14.3413 6.9922 14.2759 6.82759 14.2759H4.88483C5.52163 12.0407 6.71837 10.0051 8.36174 8.36174C10.0051 6.71837 12.0407 5.52163 14.2759 4.88483V6.82759C14.2759 6.9922 14.3413 7.15008 14.4577 7.26648C14.5741 7.38288 14.7319 7.44827 14.8965 7.44827H21.1034C21.2681 7.44827 21.4259 7.38288 21.5423 7.26648C21.6587 7.15008 21.7241 6.9922 21.7241 6.82759V4.88483C23.9593 5.52163 25.9949 6.71837 27.6383 8.36174C29.2816 10.0051 30.4784 12.0407 31.1152 14.2759H29.1724C29.0078 14.2759 28.8499 14.3413 28.7335 14.4577C28.6171 14.5741 28.5517 14.7319 28.5517 14.8965V21.1034C28.5517 21.2681 28.6171 21.4259 28.7335 21.5423C28.8499 21.6587 29.0078 21.7241 29.1724 21.7241H31.14C30.501 23.9622 29.3005 25.9997 27.6525 27.6433C26.0046 29.2869 23.9639 30.482 21.7241 31.1152ZM34.7586 20.4828H29.7931V15.5172H34.7586V20.4828Z" fill="white"/>
</svg>
