<svg width="38" height="38" viewBox="0 0 38 38" fill="none" xmlns="http://www.w3.org/2000/svg">
<path fill-rule="evenodd" clip-rule="evenodd" d="M19.0001 0C17.9046 0 16.854 0.435167 16.0794 1.20977C15.3048 1.98437 14.8696 3.03495 14.8696 4.13041C14.8696 5.22586 15.3048 6.27644 16.0794 7.05104C16.854 7.82565 17.9046 8.26081 19.0001 8.26081C20.0955 8.26081 21.1461 7.82565 21.9207 7.05104C22.6953 6.27644 23.1305 5.22586 23.1305 4.13041C23.1305 3.03495 22.6953 1.98437 21.9207 1.20977C21.1461 0.435167 20.0955 0 19.0001 0Z" fill="white"/>
<path fill-rule="evenodd" clip-rule="evenodd" d="M15.6957 11.5652C15.0384 11.5652 14.408 11.8263 13.9433 12.2911C13.4785 12.7559 13.2174 13.3862 13.2174 14.0435V23.0808C13.2174 23.2999 13.3044 23.51 13.4593 23.6649C13.6143 23.8199 13.8244 23.9069 14.0435 23.9069H15.6957C15.9147 23.9069 16.1249 23.9939 16.2798 24.1489C16.4347 24.3038 16.5217 24.5139 16.5217 24.733V35.5216C16.5217 35.7407 16.6088 35.9508 16.7637 36.1057C16.9186 36.2607 17.1287 36.3477 17.3478 36.3477H20.6522C20.8713 36.3477 21.0814 36.2607 21.2363 36.1057C21.3912 35.9508 21.4783 35.7407 21.4783 35.5216V24.733C21.4783 24.5139 21.5653 24.3038 21.7202 24.1489C21.8751 23.9939 22.0853 23.9069 22.3043 23.9069H23.9565C24.1756 23.9069 24.3857 23.8199 24.5407 23.6649C24.6956 23.51 24.7826 23.2999 24.7826 23.0808V14.0435C24.7826 13.3862 24.5215 12.7559 24.0567 12.2911C23.592 11.8263 22.9616 11.5652 22.3043 11.5652H15.6957ZM11.5652 14.0435C11.5652 12.948 12.0004 11.8975 12.775 11.1229C13.5496 10.3483 14.6002 9.91309 15.6957 9.91309H22.3043C23.3998 9.91309 24.4504 10.3483 25.225 11.1229C25.9996 11.8975 26.4348 12.948 26.4348 14.0435V23.0808C26.4348 23.7381 26.1737 24.3684 25.7089 24.8332C25.2442 25.298 24.6138 25.5591 23.9565 25.5591H23.1304V35.5216C23.1304 36.1789 22.8693 36.8092 22.4046 37.274C21.9398 37.7387 21.3094 37.9998 20.6522 37.9998H17.3478C16.6905 37.9998 16.0602 37.7387 15.5954 37.274C15.1307 36.8092 14.8696 36.1789 14.8696 35.5216V25.5591H14.0435C13.3862 25.5591 12.7558 25.298 12.2911 24.8332C11.8263 24.3684 11.5652 23.7381 11.5652 23.0808V14.0435ZM8.22617 22.0664C8.25746 22.1703 8.26795 22.2794 8.25707 22.3874C8.24618 22.4954 8.21412 22.6001 8.16272 22.6957C8.11132 22.7913 8.04158 22.8758 7.9575 22.9445C7.87342 23.0131 7.77664 23.0645 7.6727 23.0957C5.70661 23.6855 4.15522 24.4125 3.11435 25.1972C2.06191 25.9919 1.65217 26.7503 1.65217 27.4029C1.65217 28.143 2.18252 29.0154 3.54556 29.9092C4.53687 30.5618 5.87843 31.1582 7.50417 31.6572L5.87348 28.4619C5.8187 28.3649 5.78412 28.2578 5.77181 28.147C5.7595 28.0363 5.76972 27.9242 5.80186 27.8175C5.83399 27.7109 5.88738 27.6118 5.9588 27.5263C6.03022 27.4407 6.11821 27.3706 6.21746 27.3199C6.31672 27.2693 6.42518 27.2393 6.53634 27.2316C6.6475 27.224 6.75906 27.239 6.86429 27.2756C6.96952 27.3122 7.06626 27.3697 7.14869 27.4447C7.23111 27.5197 7.29752 27.6105 7.34391 27.7118L9.82217 32.5675C9.92089 32.7614 9.93913 32.9864 9.87293 33.1937C9.80673 33.4009 9.66144 33.5737 9.46861 33.6745L4.51209 36.2535C4.41586 36.3036 4.31071 36.3343 4.20263 36.3438C4.09455 36.3533 3.98566 36.3414 3.88218 36.3088C3.7787 36.2762 3.68265 36.2235 3.59952 36.1538C3.5164 36.0841 3.44781 35.9987 3.3977 35.9024C3.34758 35.8062 3.3169 35.7011 3.30742 35.593C3.29794 35.4849 3.30984 35.376 3.34244 35.2725C3.37504 35.169 3.42771 35.073 3.49743 34.9899C3.56715 34.9067 3.65256 34.8382 3.74878 34.788L6.83835 33.1805C5.18122 32.6584 3.75209 32.0223 2.63852 31.2904C1.11357 30.2892 0 28.9823 0 27.4029C0 26.0035 0.875652 24.8172 2.11974 23.8788C3.37374 22.9321 5.1267 22.1341 7.19687 21.5129C7.3008 21.4816 7.40987 21.4711 7.51785 21.482C7.62584 21.4929 7.73062 21.525 7.82621 21.5764C7.9218 21.6278 8.00632 21.6975 8.07495 21.7816C8.14358 21.8657 8.19496 21.9624 8.22617 22.0664ZM29.7738 22.0664C29.805 21.9624 29.8564 21.8657 29.925 21.7816C29.9937 21.6975 30.0782 21.6278 30.1738 21.5764C30.2694 21.525 30.3742 21.4929 30.4821 21.482C30.5901 21.4711 30.6992 21.4816 30.8031 21.5129C32.8733 22.1341 34.6263 22.9321 35.8803 23.8788C37.1227 24.8172 38 26.0035 38 27.4029C38 28.9823 36.8864 30.2892 35.3615 31.2904C33.8084 32.3098 31.6424 33.1441 29.103 33.7455C28.9967 33.7728 28.8859 33.7787 28.7773 33.7627C28.6686 33.7467 28.5642 33.7092 28.4703 33.6524C28.3763 33.5956 28.2945 33.5206 28.2299 33.4319C28.1652 33.3431 28.1189 33.2423 28.0936 33.1354C28.0684 33.0286 28.0647 32.9177 28.0827 32.8094C28.1008 32.7011 28.1403 32.5975 28.1989 32.5046C28.2575 32.4117 28.3341 32.3314 28.4241 32.2685C28.5141 32.2055 28.6157 32.1612 28.723 32.138C31.1567 31.5597 33.1211 30.7849 34.4561 29.9092C35.8175 29.017 36.3478 28.1414 36.3478 27.4029C36.3478 26.7486 35.9381 25.9919 34.8857 25.1972C33.8448 24.4125 32.2934 23.6855 30.3273 23.0957C30.2234 23.0645 30.1266 23.0131 30.0425 22.9445C29.9584 22.8758 29.8887 22.7913 29.8373 22.6957C29.7859 22.6001 29.7538 22.4954 29.7429 22.3874C29.732 22.2794 29.7425 22.1703 29.7738 22.0664Z" fill="white"/>
</svg>
