<svg width="30" height="32" viewBox="0 0 30 32" fill="none" xmlns="http://www.w3.org/2000/svg">
<path fill-rule="evenodd" clip-rule="evenodd" d="M0 4.38462C0 1.96305 1.96305 0 4.38462 0H25.6154C28.037 0 30 1.96305 30 4.38462V21.9148C30 24.3364 28.037 26.2994 25.6154 26.2994H21.2115C20.9921 26.2994 20.7817 26.3865 20.6266 26.5417L16.8719 30.2964C15.838 31.3302 14.1618 31.3302 13.1279 30.2964L9.3732 26.5417C9.2964 26.4649 9.20523 26.404 9.10488 26.3624C9.00453 26.3208 8.89697 26.2994 8.78835 26.2994H4.38462C1.96305 26.2994 0 24.3364 0 21.9148V4.38462ZM4.38462 1.82025C2.96837 1.82025 1.82025 2.96837 1.82025 4.38462V21.9148C1.82025 23.3311 2.96837 24.4792 4.38462 24.4792H8.78835C9.13601 24.4792 9.48026 24.5476 9.80145 24.6807C10.1226 24.8137 10.4145 25.0088 10.6603 25.2546L14.415 29.0093C14.5701 29.1644 14.7805 29.2516 14.9999 29.2516C15.2193 29.2516 15.4297 29.1644 15.5848 29.0093L19.3395 25.2546C19.5853 25.0088 19.8772 24.8137 20.1984 24.6807C20.5196 24.5476 20.8638 24.4792 21.2115 24.4792H25.6154C27.0316 24.4792 28.1798 23.3311 28.1798 21.9148V4.38462C28.1798 2.96837 27.0316 1.82025 25.6154 1.82025H4.38462Z" fill="white"/>
<path fill-rule="evenodd" clip-rule="evenodd" d="M13.5984 6.46443C14.1788 5.28855 15.8556 5.28855 16.436 6.46443L17.8789 9.38803L21.1053 9.85692C22.403 10.0455 22.9212 11.6402 21.9821 12.5556L19.6475 14.8313L20.1986 18.0447C20.4203 19.3372 19.0637 20.3227 17.9029 19.7126L15.0172 18.1954L12.1315 19.7126C10.9707 20.3227 9.61406 19.3372 9.83577 18.0447L10.3869 14.8313L8.05229 12.5556C7.11322 11.6402 7.63144 10.0455 8.9291 9.85692L12.1555 9.38803L13.5984 6.46443ZM14.9939 7.13647C14.9907 7.14033 14.988 7.14462 14.9859 7.14921L13.363 10.4375C13.3075 10.55 13.2254 10.6473 13.124 10.721C13.0225 10.7947 12.9046 10.8427 12.7805 10.8607L9.15162 11.388C9.14662 11.3886 9.14171 11.3898 9.13706 11.3918C9.13593 11.3923 9.13488 11.3929 9.13397 11.3938C9.12898 11.3988 9.12535 11.405 9.12341 11.4118C9.12098 11.4185 9.12026 11.4257 9.12132 11.4327C9.12161 11.4339 9.12207 11.435 9.12268 11.4361C9.12526 11.4404 9.12849 11.4443 9.13224 11.4476L11.7581 14.0073C11.8479 14.0948 11.9151 14.2029 11.9539 14.3222C11.9926 14.4414 12.0018 14.5684 11.9806 14.692L11.3608 18.3062C11.3597 18.3111 11.3593 18.3162 11.3598 18.3213C11.3599 18.3225 11.3602 18.3236 11.3607 18.3247C11.3619 18.3275 11.3658 18.334 11.3746 18.3404C11.3802 18.3448 11.3868 18.3477 11.3938 18.3488C11.395 18.3489 11.396 18.3488 11.3975 18.3486C11.4024 18.3475 11.4071 18.3456 11.4115 18.343L14.6572 16.6366C14.7682 16.5783 14.8918 16.5478 15.0172 16.5478C15.1426 16.5478 15.2662 16.5783 15.3772 16.6366L18.6229 18.343C18.6311 18.3474 18.6357 18.3484 18.6369 18.3486C18.6384 18.3488 18.6394 18.3489 18.6406 18.3488C18.6476 18.3477 18.6542 18.3448 18.6598 18.3404C18.6657 18.3364 18.6705 18.331 18.6737 18.3247C18.6742 18.3236 18.6745 18.3225 18.6746 18.3213C18.6751 18.3162 18.6748 18.3111 18.6737 18.3062L18.0538 14.692C18.0326 14.5684 18.0418 14.4414 18.0805 14.3222C18.1193 14.2029 18.1865 14.0948 18.2763 14.0073L20.9022 11.4476C20.9059 11.4443 20.9091 11.4404 20.9117 11.4361C20.9123 11.4352 20.9125 11.4344 20.9128 11.4338L20.9131 11.4327C20.9141 11.4257 20.9134 11.4185 20.911 11.4118C20.909 11.405 20.9054 11.3988 20.9004 11.3938C20.8995 11.3929 20.8985 11.3923 20.8973 11.3918C20.8927 11.3898 20.8878 11.3886 20.8828 11.388L17.2539 10.8607C17.1298 10.8427 17.0119 10.7947 16.9104 10.721C16.809 10.6473 16.7269 10.55 16.6714 10.4375L15.0485 7.14921C15.0464 7.14462 15.0437 7.14033 15.0405 7.13647C15.0397 7.13558 15.0387 7.13481 15.0377 7.13419C15.0313 7.13103 15.0243 7.1295 15.0172 7.12973C15.0101 7.1295 15.0031 7.13103 14.9967 7.13419C14.9957 7.13481 14.9947 7.13558 14.9939 7.13647Z" fill="white"/>
</svg>
