<svg width="38" height="38" viewBox="0 0 38 38" fill="none" xmlns="http://www.w3.org/2000/svg">
<path d="M26.9175 34.8355C22.5521 34.8355 19.0005 31.2839 19.0005 26.9185C19.0005 22.553 22.5521 19.0015 26.9175 19.0015C31.2829 19.0015 34.8345 22.553 34.8345 26.9185C34.8345 31.2839 31.2829 34.8355 26.9175 34.8355ZM26.9175 20.5849C23.4245 20.5849 20.5839 23.4255 20.5839 26.9185C20.5839 30.4115 23.4245 33.2521 26.9175 33.2521C30.4105 33.2521 33.2511 30.4115 33.2511 26.9185C33.2511 23.4255 30.4105 20.5849 26.9175 20.5849Z" fill="white"/>
<path d="M37.21 38.0023C37 38.0023 36.7985 37.9192 36.6495 37.7711L31.7916 32.9132C31.6474 32.7639 31.5676 32.5639 31.5694 32.3564C31.5712 32.1488 31.6545 31.9502 31.8013 31.8034C31.9481 31.6566 32.1466 31.5734 32.3542 31.5716C32.5618 31.5698 32.7618 31.6496 32.9111 31.7938L37.769 36.6517C37.8794 36.7624 37.9545 36.9033 37.9849 37.0566C38.0153 37.21 37.9996 37.3689 37.9398 37.5133C37.8801 37.6578 37.7789 37.7813 37.649 37.8683C37.5191 37.9553 37.3664 38.002 37.21 38.0023ZM15.0424 31.6687H7.9171C6.1706 31.6687 4.75029 30.2484 4.75029 28.5019V17.4181H1.58348C1.37496 17.4202 1.16811 17.3807 0.975046 17.3018C0.781982 17.223 0.606587 17.1065 0.45913 16.959C0.311674 16.8116 0.195121 16.6362 0.116298 16.4431C0.0374738 16.25 -0.00203636 16.0432 8.07968e-05 15.8347C8.07968e-05 15.3897 0.193256 14.9495 0.51627 14.6598L16.0875 0.211216C16.2339 0.0754433 16.4261 0 16.6258 0C16.8255 0 17.0178 0.0754433 17.1642 0.211216L22.1677 4.85217V2.37573C22.1677 2.16576 22.2511 1.96438 22.3996 1.81591C22.5481 1.66744 22.7495 1.58403 22.9594 1.58403H27.7096C27.9196 1.58403 28.121 1.66744 28.2694 1.81591C28.4179 1.96438 28.5013 2.16576 28.5013 2.37573V10.7234L32.7464 14.6677C33.0395 14.9421 33.2187 15.3165 33.2486 15.7169C33.2785 16.1172 33.1569 16.5141 32.9079 16.829C32.7784 16.9943 32.5885 17.1013 32.38 17.1265C32.1716 17.1518 31.9616 17.0932 31.7964 16.9636C31.6311 16.8341 31.5241 16.6442 31.4989 16.4357C31.4736 16.2273 31.5323 16.0173 31.6618 15.8521C31.6681 15.8457 31.6681 15.8426 31.6681 15.8347L27.1697 11.6481C27.0902 11.574 27.0268 11.4843 26.9835 11.3846C26.9402 11.2849 26.9179 11.1773 26.9179 11.0686V3.16743H23.7511V6.66675C23.7509 6.82072 23.7059 6.97129 23.6214 7.10003C23.537 7.22877 23.4168 7.33009 23.2757 7.39159C23.1345 7.45309 22.9785 7.4721 22.8267 7.44629C22.6749 7.42048 22.534 7.35097 22.4211 7.24628L16.6258 1.87221L1.58348 15.8299L5.54199 15.8347C5.75196 15.8347 5.95334 15.9181 6.10181 16.0665C6.25028 16.215 6.33369 16.4164 6.33369 16.6264V28.5019C6.33369 29.3743 7.04306 30.0853 7.9171 30.0853H15.0424C15.2524 30.0853 15.4538 30.1687 15.6022 30.3172C15.7507 30.4656 15.8341 30.667 15.8341 30.877C15.8341 31.087 15.7507 31.2883 15.6022 31.4368C15.4538 31.5853 15.2524 31.6687 15.0424 31.6687Z" fill="white"/>
</svg>
