<svg width="16" height="16" viewBox="0 0 16 16" fill="none" xmlns="http://www.w3.org/2000/svg">
<g clip-path="url(#clip0_1771_6298)">
<path d="M11.6815 9.87317C11.4322 10.2753 11.1598 10.6945 10.8648 11.1304C13.3461 11.5015 14.6165 12.2962 14.6165 12.6917C14.6165 13.2183 12.3654 14.4525 7.99983 14.4525C3.6346 14.4525 1.38347 13.2183 1.38347 12.6917C1.38347 12.2962 2.65359 11.5018 5.1356 11.1304C4.84021 10.6945 4.56819 10.2753 4.31849 9.87317C1.86961 10.3349 0 11.2842 0 12.6917C0 14.7563 4.02485 15.8367 7.99983 15.8367C11.9755 15.8367 16 14.7563 16 12.6917C16.0003 11.2842 14.1311 10.3349 11.6815 9.87317Z" fill="#FF4136"/>
<path d="M8.01794 0.163208C5.42399 0.163208 3.32141 2.26578 3.32141 4.85904C3.32141 6.71958 5.73716 10.2792 7.10353 12.1436C7.31731 12.4351 7.65664 12.6074 8.01794 12.6074C8.37854 12.6074 8.71891 12.4351 8.93165 12.1436C10.298 10.2792 12.7141 6.71958 12.7141 4.85904C12.7141 2.26578 10.6115 0.163208 8.01794 0.163208ZM8.01794 7.77488C6.48521 7.77488 5.23845 6.52812 5.23845 4.99609C5.23845 3.46372 6.48521 2.21696 8.01794 2.21696C9.55032 2.21696 10.7967 3.46372 10.7967 4.99609C10.7967 6.52812 9.55032 7.77488 8.01794 7.77488Z" fill="#FF4136"/>
<path d="M8.018 3.30573C7.0858 3.30573 6.32764 4.06389 6.32764 4.99608C6.32764 5.92758 7.0858 6.6861 8.018 6.6861C8.94984 6.6861 9.70836 5.92793 9.70836 4.99608C9.70836 4.06354 8.94984 3.30573 8.018 3.30573Z" fill="#FF4136"/>
</g>
<defs>
<clipPath id="clip0_1771_6298">
<rect width="16" height="16" fill="white"/>
</clipPath>
</defs>
</svg>
