<svg width="33" height="32" viewBox="0 0 33 32" fill="none" xmlns="http://www.w3.org/2000/svg">
<path d="M25.5697 18.6918C25.428 18.6918 25.2823 18.7122 25.1364 18.7524L24.5875 18.9037L23.7789 16.9341C23.3257 15.8299 21.9858 14.9316 20.792 14.9316H11.9175C10.7239 14.9316 9.3839 15.83 8.93074 16.9342L8.12359 18.9002L7.58786 18.7526C7.44196 18.7123 7.29618 18.6919 7.15456 18.6919C6.44256 18.6919 5.92566 19.2027 5.92566 19.9064C5.92566 20.6012 6.43269 21.1861 7.1199 21.3617C6.74307 22.4024 6.45022 23.9623 6.45022 24.9872V29.1783C6.45022 30.0731 7.17806 30.8009 8.07283 30.8009H8.66775C9.56252 30.8009 10.2904 30.0731 10.2904 29.1783V28.3943H22.4191V29.1783C22.4191 30.0731 23.1469 30.8009 24.0417 30.8009H24.6369C25.5316 30.8009 26.2595 30.0731 26.2595 29.1783V24.9872C26.2595 23.9634 25.9671 22.4055 25.5909 21.3648C26.2849 21.1935 26.7986 20.6055 26.7986 19.9064C26.7984 19.2026 26.2817 18.6918 25.5697 18.6918ZM9.13233 20.3273L10.4513 17.114C10.7225 16.4535 11.5285 15.9131 12.2424 15.9131H20.4675C21.1815 15.9131 21.9874 16.4535 22.2586 17.114L23.5776 20.3273C23.8488 20.9878 23.4865 21.5281 22.7725 21.5281H9.93741C9.22346 21.5281 8.86116 20.9878 9.13233 20.3273ZM12.6294 25.5522C12.6294 25.9092 12.3373 26.2013 11.9803 26.2013H9.28836C8.93139 26.2013 8.63932 25.9092 8.63932 25.5522V24.4786C8.63932 24.1216 8.93139 23.8295 9.28836 23.8295H11.9803C12.3373 23.8295 12.6294 24.1216 12.6294 24.4786V25.5522ZM24.041 25.5522C24.041 25.9092 23.749 26.2013 23.392 26.2013H20.7003C20.3433 26.2013 20.0512 25.9092 20.0512 25.5522V24.4786C20.0512 24.1216 20.3433 23.8295 20.7003 23.8295H23.392C23.749 23.8295 24.041 24.1216 24.041 24.4786V25.5522Z" fill="#03060E"/>
<path d="M32.0038 8.92424L17.0861 0.179915C16.8882 0.0638661 16.631 0 16.362 0C16.0931 0 15.8359 0.0638661 15.638 0.179915L0.72031 8.92424C0.309724 9.16491 0 9.70543 0 10.1814V31.0264C0 31.5632 0.436678 32 0.973568 32H2.64966C3.18655 32 3.62323 31.5632 3.62323 31.0264V13.3869C3.62323 13.2081 3.76875 13.0624 3.94775 13.0624H28.7761C28.9551 13.0624 29.1006 13.2081 29.1006 13.3869V31.0264C29.1006 31.5632 29.5373 32 30.0742 32H31.7504C32.2873 32 32.7239 31.5632 32.7239 31.0264V10.1814C32.7241 9.70543 32.4144 9.16491 32.0038 8.92424Z" fill="#03060E"/>
</svg>
