<svg width="48" height="37" viewBox="0 0 48 37" fill="none" xmlns="http://www.w3.org/2000/svg">
<path d="M4.24311 33.1493C1.59117 30.2322 0 27.0498 0 21.7459C0 12.4641 6.62986 4.24311 15.9117 0L18.2984 3.44753C9.547 8.22103 7.69064 14.3205 7.16025 18.2984C8.48622 17.5028 10.3426 17.2376 12.1989 17.5028C16.9724 18.0332 20.6852 21.7459 20.6852 26.7846C20.6852 29.1714 19.6244 31.5581 18.0332 33.4145C16.1769 35.2709 14.0553 36.0664 11.4034 36.0664C8.48622 36.0664 5.83428 34.7405 4.24311 33.1493ZM30.7626 33.1493C28.1106 30.2322 26.5194 27.0498 26.5194 21.7459C26.5194 12.4641 33.1493 4.24311 42.4311 0L44.8179 3.44753C36.0664 8.22103 34.2101 14.3205 33.6797 18.2984C35.0057 17.5028 36.862 17.2376 38.7184 17.5028C43.4919 18.0332 47.2046 21.7459 47.2046 26.7846C47.2046 29.1714 46.1438 31.5581 44.5527 33.4145C42.9615 35.2709 40.5747 36.0664 37.9228 36.0664C35.0057 36.0664 32.3537 34.7405 30.7626 33.1493Z" fill="#FF4136"/>
</svg>
